<?xml version="1.0" encoding="UTF-8"?>
<svg width="137" height="38" viewBox="0 0 411 113.4" xml:space="preserve" xmlns="http://www.w3.org/2000/svg"><style>.logo-white_svg__st3{fill:#fff}</style><path class="logo-white_svg__st3" d="M113.4 1.9h85v28.3h-85zM198.5 72.8H56.7v28.3h141.8V72.8M0 37.4h198.4v28.3H0zM265.9 27.9l.5 11c-2.8-2.3-5.7-4.1-8.4-5.4-2.9-1.4-6.4-2.1-10.3-2.1s-7.7.9-11.3 2.5c-3.5 1.7-6.7 4.1-9.4 7.2-2.7 3.1-4.9 6.9-6.5 11.3s-2.5 9.4-2.5 14.9c0 11.3 2.6 20.2 7.7 26.4 5.1 6.2 12 9.3 20.6 9.3 4 0 7.8-1 11.3-2.9s6.6-4.2 9.3-6.7h.1l1 7.9h10V1.5h-12.1v26.4zm0 20.6v35.2c-2.7 3.1-5.5 5.4-8.2 6.9s-5.7 2.3-8.8 2.3c-5.8 0-10.4-2.3-13.6-6.7-3.2-4.5-4.8-10.9-4.8-19 0-3.9.5-7.4 1.5-10.5s2.4-5.8 4.1-8.1c1.7-2.2 3.8-4 6.1-5.2 2.3-1.2 4.8-1.9 7.5-1.9s5.5.5 8.1 1.6c2.5 1.1 5.3 2.9 8.1 5.4zM330.4 2.2c-1.6-.7-3.4-1.2-5.3-1.6s-4-.6-6.1-.6c-6.8 0-11.9 2-15.2 6.1-3.2 4-4.9 9.6-4.9 16.6v10.5l-9.2.7V43h9.2v58.4h11.9V43h14.4v-9.8h-14.4V22.7c0-8.6 3-12.9 9.2-12.9 2.6 0 5.1.6 7.6 1.7l.3.1 2.7-9.3-.2-.1zM385.9 43.3l7.6-9.1-5.4-4.4-7 8.5c-2.7-2.3-5.7-4-8.9-5.1-3.4-1.2-6.9-1.8-10.4-1.8-4.2 0-8.2.8-12 2.4s-7.2 4-10.1 7c-2.9 3.1-5.2 6.9-7 11.3-1.7 4.4-2.6 9.5-2.6 15.2 0 5 .7 9.6 2 13.5s3.1 7.3 5.4 10.3l-7.6 9.1 5.6 4.4 6.8-8.4c5.6 4.5 12.1 6.7 19.3 6.7 4.2 0 8.2-.8 12-2.4s7.2-3.9 10.1-7c2.9-3 5.2-6.8 7-11.2 1.7-4.4 2.6-9.5 2.6-15.1 0-5-.7-9.6-2-13.7-1.3-3.8-3.1-7.3-5.4-10.2zm-24.1-2.1c5 0 9.3 1.8 12.6 5.3L345 82.1c-2-4.2-3-9.3-3-15.3 0-3.8.5-7.3 1.5-10.4 1-3.2 2.4-5.9 4.1-8.1s3.8-4 6.3-5.2c2.4-1.3 5-1.9 7.9-1.9zm0 52.2c-4.9 0-9.1-1.8-12.6-5.2l29.3-35.8c2.1 4.3 3.1 9.4 3.1 15.4 0 3.8-.5 7.3-1.5 10.4s-2.4 5.8-4.1 8.1c-1.8 2.2-3.9 4-6.3 5.2-2.5 1.2-5.1 1.9-7.9 1.9z"/></svg>
