<svg title="Logo: The Norwegian Agency for Public and Financial Management" viewBox="0 0 642 69" xmlns="http://www.w3.org/2000/svg">
    <path d="M140.5 23.5V4.2H134V1.8h15.8v2.3h-6.5v19.3h-2.8v.1z" fill="#012A4C"/>
    <path d="M143.4 23.6h-3V4.3h-6.5V1.7h16v2.5h-6.5v19.4zm-2.8-.2h2.6V4.1h6.5V1.9h-15.6V4h6.5v19.4zM153.4 23.5V0h2.7v6.4l-.1 3.3c.8-.7 1.6-1.3 2.4-1.9.8-.5 1.8-.8 2.9-.8 1.7 0 2.9.5 3.7 1.6.8 1.1 1.2 2.6 1.2 4.7v10.2h-2.7v-9.8c0-1.5-.2-2.6-.7-3.3-.5-.7-1.3-1-2.3-1-.8 0-1.6.2-2.2.6-.6.4-1.4 1-2.2 1.8v11.6h-2.7v.1z" fill="#012A4C"/>
    <path d="M166.3 23.6h-2.9v-9.9c0-1.5-.2-2.6-.7-3.2-.5-.6-1.2-1-2.2-1-.8 0-1.5.2-2.2.6-.6.4-1.3 1-2.1 1.8v11.7h-2.9V-.1h2.9v6.5l-.1 3.1c.7-.7 1.5-1.2 2.2-1.7.8-.5 1.9-.8 3-.8 1.7 0 3 .5 3.8 1.6.8 1.1 1.2 2.7 1.2 4.7v10.3zm-2.7-.2h2.5V13.3c0-2-.4-3.6-1.2-4.6-.8-1-2-1.5-3.6-1.5-1.1 0-2.1.3-2.9.8-.8.5-1.6 1.1-2.4 1.9l-.2.2.1-3.5V.1h-2.5v23.3h2.5V11.8c.8-.8 1.6-1.4 2.2-1.9.7-.4 1.4-.6 2.3-.6 1.1 0 1.9.4 2.4 1 .5.7.7 1.8.7 3.3v9.8h.1zM177.8 23.9c-1.1 0-2.1-.2-3-.6-.9-.4-1.7-.9-2.4-1.6-.7-.7-1.2-1.6-1.6-2.6-.4-1-.6-2.2-.6-3.5 0-1.3.2-2.5.6-3.5.4-1 .9-1.9 1.6-2.7.7-.8 1.4-1.3 2.3-1.7.9-.4 1.7-.6 2.7-.6 1 0 1.9.2 2.7.5.8.4 1.5.9 2 1.5.5.7 1 1.5 1.2 2.4.3.9.4 2 .4 3.1v.8c0 .3 0 .5-.1.7h-10.8c.1 1.7.6 3.1 1.6 4.1 1 1 2.2 1.5 3.7 1.5.8 0 1.5-.1 2.1-.3.6-.2 1.3-.5 1.9-.9l1 1.8c-.7.4-1.5.8-2.3 1.2-.9.2-1.9.4-3 .4zm-5.1-9.7h8.6c0-1.6-.3-2.9-1-3.7-.7-.8-1.7-1.3-2.9-1.3-.6 0-1.1.1-1.6.3-.5.2-1 .5-1.4 1-.4.4-.8 1-1 1.6-.4.6-.6 1.3-.7 2.1z" fill="#012A4C"/>
    <path d="M177.8 24c-1.1 0-2.1-.2-3.1-.6-.9-.4-1.8-.9-2.5-1.7-.7-.7-1.3-1.6-1.7-2.7-.4-1-.6-2.2-.6-3.6 0-1.3.2-2.5.6-3.6.4-1.1 1-2 1.6-2.7.7-.7 1.5-1.3 2.3-1.7.9-.4 1.8-.6 2.7-.6 1 0 1.9.2 2.8.5.8.4 1.5.9 2.1 1.5.5.7 1 1.5 1.3 2.4.3.9.4 2 .4 3.1v.8c0 .3 0 .5-.1.7v.1h-10.8c.1 1.6.6 2.9 1.6 3.9.9 1 2.2 1.5 3.7 1.5.8 0 1.5-.1 2.1-.3.6-.2 1.3-.5 1.8-.9l.1-.1 1.1 2h-.1c-.7.4-1.5.8-2.4 1.2-.8.6-1.8.8-2.9.8zm-.5-16.8c-.9 0-1.8.2-2.6.6-.8.4-1.6.9-2.3 1.6-.7.7-1.2 1.6-1.6 2.6-.4 1-.6 2.2-.6 3.5 0 1.3.2 2.5.6 3.5.4 1 .9 1.9 1.6 2.6.7.7 1.5 1.2 2.4 1.6.9.4 1.9.6 3 .6s2.1-.2 2.9-.5c.8-.3 1.6-.7 2.2-1.1l-.9-1.6c-.6.4-1.2.6-1.8.9-.7.2-1.4.4-2.2.4-1.6 0-2.8-.5-3.8-1.5s-1.5-2.4-1.6-4.1v-.1h10.8c0-.2.1-.4.1-.6v-.8c0-1.1-.1-2.2-.4-3.1-.3-.9-.7-1.7-1.2-2.3-.5-.6-1.2-1.1-2-1.5-.7-.6-1.6-.7-2.6-.7zm4.1 7.1h-8.8v-.1c.1-.8.3-1.5.6-2.1.3-.6.6-1.2 1.1-1.6.4-.4.9-.8 1.4-1 .5-.2 1.1-.3 1.7-.3 1.3 0 2.3.4 3 1.3.7.9 1.1 2.1 1.1 3.8h-.1zm-8.6-.2h8.4c0-1.5-.4-2.7-1-3.5-.7-.8-1.6-1.2-2.8-1.2-.6 0-1.1.1-1.6.3-.5.2-1 .5-1.4 1-.4.4-.8.9-1 1.5-.3.5-.5 1.2-.6 1.9zM194.4 23.5V1.8h2.8l7.8 13.6 2.3 4.5h.1c-.1-1.1-.1-2.2-.2-3.4-.1-1.2-.1-2.3-.1-3.5V1.8h2.6v21.6h-2.8L199 9.8l-2.3-4.5h-.1c.1 1.1.2 2.2.2 3.3.1 1.1.1 2.3.1 3.4v11.3h-2.5v.2z" fill="#012A4C"/>
    <path d="M209.9 23.6h-3v-.1L199 9.9l-2.3-4.3c.1 1 .2 2 .2 3.2.1 1.1.1 2.3.1 3.4v11.4h-2.8V1.7h3v.1l7.8 13.6 2.3 4.4c-.1-1-.1-2.1-.2-3.2-.1-1.2-.1-2.3-.1-3.5V1.7h2.8v21.9h.1zm-2.9-.2h2.7V1.9h-2.4V13c0 1.1 0 2.3.1 3.5.1 1.2.1 2.3.2 3.4v.1h-.3v-.1l-2.3-4.5-7.8-13.5h-2.7v21.4h2.4V12.2c0-1.1 0-2.3-.1-3.4-.1-1.2-.2-2.3-.2-3.3v-.1h.3v.1l2.3 4.5 7.8 13.4zM221.6 23.9c-1 0-1.9-.2-2.8-.6-.9-.4-1.7-.9-2.4-1.6-.7-.7-1.2-1.6-1.6-2.6-.4-1-.6-2.2-.6-3.5 0-1.3.2-2.5.6-3.6.4-1 1-1.9 1.6-2.7.6-.8 1.5-1.3 2.4-1.6.9-.4 1.8-.6 2.8-.6 1 0 1.9.2 2.8.6.9.4 1.7.9 2.4 1.6.7.7 1.2 1.6 1.6 2.7.4 1 .6 2.2.6 3.6 0 1.3-.2 2.5-.6 3.5-.4 1-1 1.9-1.6 2.6-.7.7-1.5 1.3-2.4 1.6-.8.4-1.8.6-2.8.6zm0-2.3c.7 0 1.3-.1 1.9-.4.6-.3 1.1-.7 1.5-1.3.4-.5.7-1.2.9-1.9.2-.7.3-1.6.3-2.5 0-.9-.1-1.8-.3-2.5-.2-.8-.5-1.4-.9-2-.4-.5-.9-1-1.5-1.3-.6-.3-1.2-.4-1.9-.4s-1.3.1-1.9.4c-.6.3-1.1.7-1.5 1.3-.4.6-.7 1.2-.9 2-.2.8-.3 1.6-.3 2.5 0 .9.1 1.8.3 2.5.2.7.5 1.4.9 1.9s.9 1 1.5 1.3c.6.3 1.2.4 1.9.4z" fill="#012A4C"/>
    <path d="M221.6 24c-1 0-2-.2-2.9-.6-.9-.4-1.7-.9-2.4-1.7-.7-.7-1.2-1.6-1.7-2.7-.4-1-.6-2.3-.6-3.6 0-1.4.2-2.6.6-3.6.4-1.1 1-2 1.7-2.7.7-.7 1.5-1.3 2.4-1.7.9-.4 1.9-.6 2.9-.6s2 .2 2.9.6c.9.4 1.7.9 2.4 1.7.7.8 1.2 1.6 1.7 2.7.4 1.1.6 2.3.6 3.6 0 1.3-.2 2.5-.6 3.6-.4 1.1-1 2-1.7 2.7-.7.7-1.5 1.3-2.4 1.7-.9.4-1.9.6-2.9.6zm0-16.8c-1 0-1.9.2-2.8.6-.9.4-1.7.9-2.3 1.6-.7.7-1.2 1.6-1.6 2.6-.4 1-.6 2.2-.6 3.5 0 1.3.2 2.5.6 3.5.4 1 .9 1.9 1.6 2.6.7.7 1.5 1.2 2.3 1.6.9.4 1.8.6 2.8.6 1 0 1.9-.2 2.8-.6.9-.4 1.7-.9 2.3-1.6.7-.7 1.2-1.6 1.6-2.6.4-1 .6-2.2.6-3.5 0-1.3-.2-2.5-.6-3.5-.4-1-.9-1.9-1.6-2.6-.7-.7-1.5-1.3-2.3-1.6-.9-.5-1.8-.6-2.8-.6zm0 14.5c-.7 0-1.3-.2-1.9-.5-.6-.3-1.1-.7-1.5-1.3-.4-.5-.7-1.2-1-2-.2-.8-.3-1.6-.3-2.5 0-.9.1-1.8.3-2.6.2-.8.5-1.4 1-2 .4-.6.9-1 1.5-1.3.6-.3 1.2-.5 1.9-.5s1.3.2 1.9.5c.6.3 1.1.7 1.5 1.3.4.6.7 1.2 1 2 .2.8.3 1.6.3 2.6 0 .9-.1 1.8-.3 2.5-.2.8-.5 1.4-1 2-.4.5-.9 1-1.5 1.3-.5.4-1.2.5-1.9.5zm0-12.3c-.7 0-1.3.1-1.8.4-.6.3-1 .7-1.4 1.2-.4.5-.7 1.2-.9 1.9-.2.7-.3 1.6-.3 2.5 0 .9.1 1.7.3 2.5.2.7.5 1.4.9 1.9s.9.9 1.4 1.2c.6.3 1.2.4 1.8.4.7 0 1.3-.1 1.8-.4.6-.3 1-.7 1.4-1.2.4-.5.7-1.2.9-1.9.2-.7.3-1.6.3-2.5 0-.9-.1-1.7-.3-2.5-.2-.7-.5-1.4-.9-1.9s-.9-1-1.4-1.2c-.5-.2-1.1-.4-1.8-.4zM233.2 23.5v-16h2.2l.2 2.9h.1c.5-1 1.2-1.8 2-2.4.8-.6 1.6-.9 2.6-.9.6 0 1.2.1 1.7.3l-.5 2.4c-.3-.1-.5-.2-.7-.2-.2 0-.5-.1-.8-.1-.7 0-1.4.3-2.1.8-.7.6-1.4 1.5-1.9 2.9v10.3h-2.8z" fill="#012A4C"/>
    <path d="M236 23.6h-2.9V7.4h2.4l.2 2.8c.5-1 1.2-1.7 1.9-2.3.8-.6 1.7-.9 2.6-.9.6 0 1.2.1 1.8.3h.1l-.6 2.6h-.1c-.3-.1-.5-.2-.7-.2-.2 0-.5-.1-.8-.1-.7 0-1.4.3-2.1.8-.7.5-1.4 1.5-1.9 2.8v10.4h.1zm-2.7-.2h2.5V13.2c.6-1.4 1.2-2.4 2-2.9.8-.6 1.5-.8 2.2-.8.3 0 .6 0 .8.1.2 0 .4.1.6.2l.5-2.2c-.5-.2-1-.3-1.6-.3-.9 0-1.7.3-2.5.9-.8.6-1.4 1.4-2 2.4v.1h-.3l-.2-2.9h-2.1v15.6h.1zM247.8 23.5l-4.5-16h2.8l2.4 9.3c.2.8.3 1.5.5 2.2.2.7.3 1.5.5 2.2h.1c.2-.7.4-1.5.5-2.2.2-.7.4-1.5.6-2.2l2.5-9.3h2.6l2.5 9.3c.2.8.4 1.5.6 2.2.2.7.4 1.5.5 2.2h.1c.2-.7.3-1.5.5-2.2.2-.7.3-1.5.5-2.2l2.3-9.3h2.6l-4.3 16h-3.3l-2.3-8.6c-.2-.8-.4-1.5-.5-2.3-.2-.7-.3-1.5-.5-2.3h-.1c-.2.8-.4 1.6-.5 2.4-.2.8-.4 1.5-.6 2.3l-2.2 8.6h-3.3v-.1z" fill="#012A4C"/>
    <path d="M261.2 23.6h-3.5v-.1l-2.3-8.6c-.2-.8-.4-1.5-.5-2.3-.2-.7-.3-1.4-.5-2.2-.2.8-.3 1.5-.5 2.2-.2.8-.4 1.5-.6 2.3l-2.3 8.7h-3.3v-.1l-4.5-16.2h3v.1l2.4 9.3c.2.8.3 1.5.5 2.2.1.7.3 1.4.4 2.1.2-.7.3-1.4.5-2.1.2-.7.4-1.5.6-2.2l2.5-9.3h2.8l2.7 10.2.4 1.4c.2.7.3 1.4.5 2.1.2-.7.3-1.4.5-2.1.2-.7.3-1.5.5-2.2l2.4-9.4h2.8l-4.5 16.2zm-3.3-.2h3.1l4.2-15.8h-2.4l-2.3 9.2c-.2.8-.3 1.5-.5 2.2-.2.7-.3 1.5-.5 2.2v.1h-.3v-.1c-.2-.7-.4-1.5-.5-2.2l-.6-2.2-2.5-9.2h-2.5l-2.5 9.2c-.2.8-.4 1.5-.6 2.2-.2.7-.4 1.5-.5 2.2v.1h-.3v-.1c-.2-.7-.3-1.5-.5-2.2-.1-.7-.3-1.4-.5-2.2L246 7.6h-2.6l4.4 15.8h3l2.2-8.5c.2-.8.4-1.5.6-2.3.2-.7.3-1.5.5-2.4v-.1h.3v.1c.2.8.4 1.6.5 2.3.2.7.3 1.5.5 2.3l2.5 8.6zM275.2 23.9c-1.1 0-2.1-.2-3-.6-.9-.4-1.7-.9-2.4-1.6-.7-.7-1.2-1.6-1.6-2.6-.4-1-.6-2.2-.6-3.5 0-1.3.2-2.5.6-3.5.4-1 .9-1.9 1.6-2.7.7-.8 1.4-1.3 2.3-1.7.9-.4 1.7-.6 2.7-.6 1 0 1.9.2 2.7.5.8.4 1.5.9 2 1.5.5.7 1 1.5 1.2 2.4.3.9.4 2 .4 3.1v.8c0 .3 0 .5-.1.7h-10.8c.1 1.7.6 3.1 1.6 4.1 1 1 2.2 1.5 3.7 1.5.8 0 1.5-.1 2.1-.3.6-.2 1.3-.5 1.9-.9l1 1.8c-.7.4-1.5.8-2.3 1.2-.9.2-1.9.4-3 .4zm-5-9.7h8.6c0-1.6-.3-2.9-1-3.7-.7-.8-1.7-1.3-2.9-1.3-.6 0-1.1.1-1.6.3-.5.2-1 .5-1.4 1-.4.4-.8 1-1 1.6-.5.6-.6 1.3-.7 2.1z" fill="#012A4C"/>
    <path d="M275.2 24c-1.1 0-2.1-.2-3.1-.6-.9-.4-1.8-.9-2.5-1.7-.7-.7-1.3-1.6-1.7-2.7-.4-1-.6-2.2-.6-3.6 0-1.3.2-2.5.6-3.6.4-1.1 1-2 1.6-2.7.7-.7 1.5-1.3 2.3-1.7.9-.4 1.8-.6 2.7-.6 1 0 1.9.2 2.8.5.8.4 1.5.9 2.1 1.5.5.7 1 1.5 1.3 2.4.3.9.4 2 .4 3.1v.8c0 .3 0 .5-.1.7v.1h-10.8c.1 1.6.6 2.9 1.6 3.9.9 1 2.2 1.5 3.7 1.5.8 0 1.5-.1 2.1-.3.6-.2 1.3-.5 1.8-.9l.1-.1 1.1 2h-.1c-.7.4-1.5.8-2.4 1.2-.8.6-1.8.8-2.9.8zm-.5-16.8c-.9 0-1.8.2-2.6.6-.8.4-1.6.9-2.3 1.6-.7.7-1.2 1.6-1.6 2.6-.4 1-.6 2.2-.6 3.5 0 1.3.2 2.5.6 3.5.4 1 .9 1.9 1.6 2.6.7.7 1.5 1.2 2.4 1.6.9.4 1.9.6 3 .6s2.1-.2 2.9-.5c.8-.3 1.6-.7 2.2-1.1l-.9-1.6c-.6.4-1.2.6-1.8.9-.7.2-1.4.4-2.2.4-1.6 0-2.8-.5-3.8-1.5s-1.5-2.4-1.6-4.1v-.1h10.8c0-.2.1-.4.1-.6v-.8c0-1.1-.1-2.2-.4-3.1-.3-.9-.7-1.7-1.2-2.3-.5-.6-1.2-1.1-2-1.5-.7-.6-1.6-.7-2.6-.7zm4.1 7.1H270v-.1c.1-.8.3-1.5.6-2.1.3-.6.6-1.2 1.1-1.6.4-.4.9-.8 1.4-1 .5-.2 1.1-.3 1.7-.3 1.3 0 2.3.4 3 1.3.7.9 1.1 2.1 1.1 3.8h-.1zm-8.5-.2h8.4c0-1.5-.4-2.7-1-3.5-.7-.8-1.6-1.2-2.8-1.2-.6 0-1.1.1-1.6.3-.5.2-1 .5-1.4 1-.4.4-.8.9-1 1.5-.4.5-.5 1.2-.6 1.9zM290.1 30.9c-1 0-1.9-.1-2.7-.3-.8-.2-1.5-.5-2.1-.8-.6-.4-1-.8-1.4-1.4-.3-.5-.5-1.1-.5-1.8s.2-1.3.6-1.9c.4-.6 1-1.2 1.7-1.7v-.1c-.4-.2-.7-.6-1-1-.3-.4-.4-1-.4-1.6 0-.7.2-1.3.6-1.8.4-.5.8-.9 1.2-1.2v-.1c-.5-.4-1-1-1.4-1.8-.4-.7-.6-1.6-.6-2.6 0-.9.2-1.7.5-2.4s.8-1.3 1.3-1.8 1.2-.9 1.9-1.1c.7-.3 1.5-.4 2.3-.4.4 0 .9 0 1.2.1.3.1.7.2 1 .3h5.6v2.1h-3.3c.4.4.7.8.9 1.4.3.6.4 1.2.4 1.9 0 .9-.2 1.6-.5 2.3-.3.7-.7 1.3-1.3 1.7-.5.5-1.2.8-1.9 1.1-.7.3-1.5.4-2.3.4-.4 0-.8 0-1.2-.1-.4-.1-.8-.2-1.2-.4-.3.2-.5.5-.7.8-.2.3-.3.7-.3 1.1 0 .5.2.9.6 1.3.4.3 1.1.5 2.2.5h3.1c1.9 0 3.3.3 4.2.9.9.6 1.4 1.6 1.4 2.9 0 .7-.2 1.5-.6 2.1-.4.7-.9 1.3-1.6 1.8-.7.5-1.6.9-2.6 1.2-.7.2-1.8.4-3.1.4zm.4-1.9c.8 0 1.5-.1 2.1-.3.6-.2 1.2-.4 1.6-.7.4-.3.8-.6 1-1 .2-.4.4-.8.4-1.2 0-.7-.3-1.3-.8-1.6-.6-.3-1.4-.4-2.4-.4h-3.8c-.4 0-.7-.1-1.1-.2-.6.4-1 .9-1.3 1.3-.3.5-.4.9-.4 1.4 0 .9.4 1.5 1.2 2 .9.5 2 .7 3.5.7zm-.4-12.4c.5 0 .9-.1 1.3-.3.4-.2.8-.4 1.1-.8.3-.3.6-.7.7-1.2.2-.5.3-1 .3-1.6 0-1.2-.3-2.1-1-2.8-.7-.6-1.5-1-2.4-1-.9 0-1.7.3-2.4 1s-1 1.6-1 2.8c0 .6.1 1.1.3 1.6.2.5.4.9.7 1.2.3.3.7.6 1.1.8.4.2.8.3 1.3.3z" fill="#012A4C"/>
    <path d="M290.1 31c-1 0-1.9-.1-2.7-.3-.8-.2-1.5-.5-2.1-.9-.6-.4-1.1-.8-1.4-1.4-.3-.5-.5-1.2-.5-1.9s.2-1.4.6-2c.4-.6 1-1.2 1.7-1.7-.4-.2-.7-.6-1-1-.3-.4-.4-1-.4-1.7s.2-1.3.6-1.8c.4-.5.8-.9 1.2-1.2-.5-.4-1-1-1.4-1.8-.4-.7-.7-1.6-.7-2.6 0-.9.2-1.7.5-2.4s.8-1.3 1.3-1.8c.6-.5 1.2-.9 2-1.2.7-.3 1.5-.4 2.4-.4.4 0 .9 0 1.3.1s.7.2 1 .3h5.7v2.3H295c.3.4.6.8.8 1.3.3.6.4 1.2.4 1.9 0 .9-.2 1.7-.5 2.4s-.7 1.3-1.3 1.8c-.5.5-1.2.9-1.9 1.1-.7.3-1.5.4-2.3.4-.4 0-.8-.1-1.2-.2-.4-.1-.8-.2-1.1-.4-.3.2-.5.5-.7.7-.2.3-.3.6-.3 1.1 0 .5.2.9.6 1.2.4.3 1.1.5 2.2.5h3.1c1.9 0 3.3.3 4.3.9 1 .6 1.4 1.6 1.4 3 0 .8-.2 1.5-.6 2.2-.4.7-.9 1.3-1.6 1.8-.7.5-1.6.9-2.6 1.2-1.2.3-2.3.5-3.6.5zm0-23.8c-.8 0-1.6.1-2.3.4-.7.3-1.4.6-1.9 1.1-.5.5-1 1.1-1.3 1.8-.3.7-.5 1.5-.5 2.3 0 .9.2 1.8.6 2.5.4.7.9 1.3 1.4 1.7v.2c-.4.3-.8.7-1.2 1.2-.4.5-.5 1.1-.5 1.7 0 .6.1 1.1.4 1.5.3.4.6.7 1 1v.4c-.7.5-1.3 1.1-1.7 1.7-.4.6-.6 1.2-.6 1.9s.2 1.3.5 1.8.8 1 1.3 1.3c.6.4 1.3.6 2.1.8.8.2 1.7.3 2.7.3 1.2 0 2.4-.1 3.4-.4 1-.3 1.8-.7 2.5-1.2s1.2-1.1 1.6-1.7c.4-.7.5-1.4.5-2.1 0-1.3-.5-2.3-1.4-2.8-.9-.6-2.3-.9-4.2-.9h-3.1c-1.1 0-1.9-.2-2.3-.5-.4-.3-.6-.8-.6-1.3s.1-.8.3-1.2c.2-.3.5-.6.7-.8h.1c.4.2.8.3 1.2.4.4.1.8.1 1.2.1.8 0 1.6-.1 2.3-.4.7-.3 1.3-.6 1.8-1.1.5-.5.9-1 1.2-1.7.3-.7.5-1.4.5-2.3 0-.7-.1-1.3-.4-1.8-.2-.6-.6-1-.9-1.4l-.2-.2h3.4V7.6h-5.5c-.3-.1-.6-.2-1-.3-.3-.1-.7-.1-1.1-.1zm.4 21.9c-1.5 0-2.6-.3-3.5-.8-.9-.5-1.3-1.2-1.3-2.1 0-.5.1-1 .4-1.4.3-.5.7-.9 1.3-1.4.3.1.7.2 1.1.2h3.8c1.1 0 1.9.1 2.5.4.6.3.9.9.9 1.6 0 .4-.1.9-.4 1.3-.2.4-.6.8-1.1 1.1-.4.3-1 .6-1.6.7-.6.3-1.3.4-2.1.4zm-3-5.5c-.5.4-.9.8-1.2 1.3-.3.4-.4.9-.4 1.3 0 .8.4 1.5 1.2 2 .8.5 1.9.7 3.4.7.8 0 1.5-.1 2.1-.3.6-.2 1.1-.4 1.6-.7.4-.3.8-.6 1-1 .2-.4.3-.8.3-1.2 0-.7-.3-1.2-.8-1.5-.5-.3-1.3-.4-2.4-.4h-2.8c-.3 0-.7 0-1-.1-.3.1-.6 0-1-.1zm2.6-6.9c-.5 0-.9-.1-1.3-.3-.4-.2-.8-.4-1.1-.8-.3-.3-.6-.8-.8-1.2-.2-.5-.3-1-.3-1.6 0-1.2.3-2.2 1-2.8.7-.7 1.5-1 2.5-1s1.8.3 2.5 1 1 1.6 1 2.8c0 .6-.1 1.2-.3 1.6-.2.5-.4.9-.8 1.2-.3.3-.7.6-1.1.8-.4.2-.8.3-1.3.3zm0-7.6c-.9 0-1.7.3-2.3.9-.6.6-1 1.5-1 2.7 0 .6.1 1.1.3 1.6.2.5.4.9.7 1.2.3.3.7.6 1.1.7.8.3 1.7.3 2.5 0 .4-.2.7-.4 1.1-.7.3-.3.5-.7.7-1.2.2-.5.3-1 .3-1.6 0-1.2-.3-2.1-1-2.7-.7-.5-1.5-.9-2.4-.9zM302.6 4.2c-.5 0-1-.2-1.3-.5-.4-.3-.5-.7-.5-1.3 0-.5.2-1 .5-1.3.4-.3.8-.5 1.3-.5s1 .2 1.3.5c.4.3.5.7.5 1.3 0 .5-.2.9-.5 1.3-.3.3-.7.5-1.3.5zm-1.3 19.3v-16h2.7v16h-2.7z" fill="#012A4C"/>
    <path d="M304.1 23.6h-2.9V7.4h2.9v16.2zm-2.7-.2h2.5V7.6h-2.5v15.8zm1.2-19.1c-.6 0-1-.2-1.4-.5-.4-.3-.6-.8-.6-1.3 0-.6.2-1 .6-1.3.4-.3.9-.5 1.4-.5.6 0 1 .2 1.4.5.4.3.6.8.6 1.3s-.2 1-.6 1.3c-.3.3-.8.5-1.4.5zm0-3.5c-.5 0-.9.2-1.3.5-.3.3-.5.7-.5 1.2s.2.9.5 1.2c.3.3.8.5 1.3.5s.9-.2 1.3-.5c.3-.3.5-.7.5-1.2s-.2-.9-.5-1.2c-.3-.4-.8-.5-1.3-.5zM313 23.9c-1.3 0-2.5-.4-3.3-1.2-.9-.8-1.3-1.9-1.3-3.4 0-1.8.8-3.1 2.3-4 1.6-.9 4.1-1.6 7.5-2 0-.5 0-1-.1-1.5s-.3-.9-.5-1.3-.6-.7-1-.9c-.4-.2-1-.3-1.6-.3-.9 0-1.8.2-2.6.5-.8.4-1.5.7-2.2 1.2L309 9.1c.7-.5 1.7-1 2.7-1.4 1.1-.5 2.3-.7 3.6-.7 2 0 3.4.6 4.3 1.8.9 1.2 1.3 2.8 1.3 4.8v9.8h-2.2l-.2-1.9h-.1c-.8.6-1.6 1.2-2.5 1.6-.9.6-1.9.8-2.9.8zm.8-2.2c.8 0 1.5-.2 2.2-.5.7-.4 1.4-.9 2.2-1.6v-4.5c-1.3.2-2.5.4-3.4.6-.9.2-1.7.5-2.2.9-.6.3-1 .7-1.2 1.1-.3.4-.4.9-.4 1.4 0 .9.3 1.6.8 2 .5.4 1.2.6 2 .6z" fill="#012A4C"/>
    <path d="M313 24c-1.4 0-2.5-.4-3.4-1.2-.9-.8-1.4-2-1.4-3.4 0-1.8.8-3.2 2.4-4.1 1.6-.9 4.1-1.6 7.4-2 0-.5-.1-.9-.1-1.4-.1-.5-.3-.9-.5-1.3s-.6-.7-1-.9c-.4-.2-.9-.3-1.6-.3-.9 0-1.8.2-2.6.5s-1.5.7-2.2 1.2l-.1.1-1.2-2.1.1-.1c.7-.5 1.7-1 2.8-1.4 1.1-.5 2.3-.7 3.6-.7 2 0 3.4.6 4.3 1.8.9 1.2 1.3 2.8 1.3 4.9v9.9h-2.4l-.2-1.9c-.8.6-1.6 1.2-2.4 1.6-.8.6-1.8.8-2.8.8zm1.9-14.8c.7 0 1.2.1 1.7.4.4.2.8.6 1 .9.2.4.4.8.5 1.3.1.5.2 1 .2 1.5v.1h-.1c-3.4.4-5.9 1-7.5 1.9-1.5.9-2.3 2.2-2.3 4 0 1.4.4 2.5 1.3 3.3.9.8 2 1.2 3.3 1.2 1 0 1.9-.2 2.8-.7.9-.4 1.7-1 2.5-1.6h.2l.2 1.9h2.1v-9.7c0-2-.4-3.6-1.3-4.7-.9-1.2-2.3-1.8-4.2-1.8-1.3 0-2.5.2-3.5.7-1 .4-1.9.9-2.6 1.3l1 1.7c.6-.4 1.3-.8 2.1-1.1.7-.4 1.6-.6 2.6-.6zm-1.1 12.6c-.8 0-1.5-.2-2.1-.6-.6-.4-.9-1.1-.9-2.1 0-.5.1-1 .4-1.5.3-.4.7-.8 1.3-1.2.6-.3 1.3-.6 2.2-.9.9-.2 2-.5 3.4-.6h.1v4.6c-.8.7-1.5 1.2-2.2 1.6-.7.5-1.4.7-2.2.7zm4.3-6.6c-1.3.2-2.4.4-3.3.6-.9.2-1.6.5-2.2.8-.5.3-.9.7-1.2 1.1-.2.4-.4.9-.4 1.4 0 .9.3 1.5.8 1.9.5.4 1.2.6 2 .6.7 0 1.5-.2 2.1-.5.7-.4 1.4-.9 2.1-1.6v-4.3h.1zM325.9 23.5v-16h2.2l.2 2.3h.1c.8-.8 1.6-1.4 2.4-1.9.8-.5 1.8-.8 3-.8 1.7 0 2.9.5 3.7 1.6.8 1.1 1.2 2.6 1.2 4.7v10.2H336v-9.8c0-1.5-.2-2.6-.7-3.3-.5-.7-1.3-1-2.3-1-.8 0-1.6.2-2.2.6-.6.4-1.4 1-2.2 1.8v11.6h-2.7z" fill="#012A4C"/>
    <path d="M338.8 23.6h-2.9v-9.9c0-1.5-.2-2.6-.7-3.2-.5-.6-1.2-1-2.2-1-.8 0-1.5.2-2.2.6-.6.4-1.3 1-2.1 1.8v11.7h-2.9V7.4h2.4l.2 2.3c.8-.7 1.6-1.4 2.4-1.9.9-.5 1.9-.8 3-.8 1.7 0 3 .5 3.8 1.6.8 1.1 1.2 2.7 1.2 4.7v10.3zm-2.7-.2h2.5V13.3c0-2-.4-3.6-1.2-4.6-.8-1-2-1.5-3.6-1.5-1.1 0-2.1.3-2.9.8-.8.5-1.6 1.2-2.4 1.9h-.2l-.3-2.3h-2v15.8h2.5V11.8c.8-.8 1.6-1.4 2.2-1.9.7-.4 1.4-.6 2.3-.6 1.1 0 1.9.4 2.4 1 .5.7.7 1.8.7 3.3v9.8zM347.8 23.5l7.3-21.6h3.1l7.3 21.6h-2.9l-2-6.6h-7.9l-2.1 6.6h-2.8zm6.6-12.1l-1 3.3h6.5l-1-3.3c-.4-1.2-.8-2.4-1.1-3.6-.4-1.2-.7-2.4-1.1-3.7h-.1c-.3 1.3-.7 2.5-1 3.7l-1.2 3.6z" fill="#012A4C"/>
    <path d="M365.7 23.6h-3.1v-.1l-2-6.5h-7.7l-2.1 6.6h-3v-.1L355 1.7h3.2v.1l7.5 21.8zm-3-.2h2.7L358.1 2h-3l-7.3 21.4h2.6l2.1-6.6h8v.1l2.2 6.5zm-2.7-8.6h-6.8l1.1-3.4c.4-1.2.8-2.4 1.1-3.6.3-1.2.7-2.4 1-3.7V4h.3v.1c.4 1.3.7 2.5 1.1 3.7.3 1.2.7 2.4 1.1 3.6l1.1 3.4zm-6.5-.2h6.2l-1-3.2c-.4-1.2-.8-2.4-1.1-3.6-.3-1.1-.7-2.3-1-3.6-.3 1.2-.7 2.4-1 3.6-.4 1.2-.7 2.4-1.1 3.6l-1 3.2zM373.7 30.9c-1 0-1.9-.1-2.7-.3-.8-.2-1.5-.5-2.1-.8-.6-.4-1-.8-1.4-1.4-.3-.5-.5-1.1-.5-1.8s.2-1.3.6-1.9c.4-.6 1-1.2 1.7-1.7v-.1c-.4-.2-.7-.6-1-1-.3-.4-.4-1-.4-1.6 0-.7.2-1.3.6-1.8.4-.5.8-.9 1.2-1.2v-.1c-.5-.4-1-1-1.4-1.8-.4-.7-.6-1.6-.6-2.6 0-.9.2-1.7.5-2.4s.8-1.3 1.3-1.8 1.2-.9 1.9-1.1c.7-.3 1.5-.4 2.3-.4.4 0 .9 0 1.2.1.3.1.7.2 1 .3h5.6v2.1h-3.3c.4.4.7.8.9 1.4.3.6.4 1.2.4 1.9 0 .9-.2 1.6-.5 2.3-.3.7-.7 1.3-1.3 1.7-.5.5-1.2.8-1.9 1.1-.7.3-1.5.4-2.3.4-.4 0-.8 0-1.2-.1-.4-.1-.8-.2-1.2-.4-.3.2-.5.5-.7.8-.2.3-.3.7-.3 1.1 0 .5.2.9.6 1.3.4.3 1.1.5 2.2.5h3.1c1.9 0 3.3.3 4.2.9.9.6 1.4 1.6 1.4 2.9 0 .7-.2 1.5-.6 2.1-.4.7-.9 1.3-1.6 1.8-.7.5-1.6.9-2.6 1.2-.7.2-1.9.4-3.1.4zm.4-1.9c.8 0 1.5-.1 2.1-.3.6-.2 1.2-.4 1.6-.7.4-.3.8-.6 1-1 .2-.4.4-.8.4-1.2 0-.7-.3-1.3-.8-1.6-.6-.3-1.4-.4-2.4-.4h-3.8c-.4 0-.7-.1-1.1-.2-.6.4-1 .9-1.3 1.3-.3.5-.4.9-.4 1.4 0 .9.4 1.5 1.2 2 .9.5 2 .7 3.5.7zm-.4-12.4c.5 0 .9-.1 1.3-.3.4-.2.8-.4 1.1-.8.3-.3.6-.7.7-1.2.2-.5.3-1 .3-1.6 0-1.2-.3-2.1-1-2.8-.7-.6-1.5-1-2.4-1-.9 0-1.7.3-2.4 1s-1 1.6-1 2.8c0 .6.1 1.1.3 1.6.2.5.4.9.7 1.2.3.3.7.6 1.1.8.4.2.8.3 1.3.3z" fill="#012A4C"/>
    <path d="M373.7 31c-1 0-1.9-.1-2.7-.3-.8-.2-1.5-.5-2.1-.9-.6-.4-1.1-.8-1.4-1.4-.3-.5-.5-1.2-.5-1.9s.2-1.4.6-2c.4-.6 1-1.2 1.7-1.7-.4-.2-.7-.6-1-1-.3-.4-.4-1-.4-1.7s.2-1.3.6-1.8c.4-.5.8-.9 1.2-1.2-.5-.4-1-1-1.4-1.8-.4-.7-.7-1.6-.7-2.6 0-.9.2-1.7.5-2.4s.8-1.3 1.3-1.8c.6-.5 1.2-.9 2-1.2.7-.3 1.5-.4 2.4-.4.4 0 .9 0 1.3.1s.7.2 1 .3h5.7v2.3h-3.2c.3.4.6.8.8 1.3.3.6.4 1.2.4 1.9 0 .9-.2 1.7-.5 2.4s-.7 1.3-1.3 1.8c-.5.5-1.2.9-1.9 1.1-.7.3-1.5.4-2.3.4-.4 0-.8-.1-1.2-.2-.4-.1-.8-.2-1.1-.4-.3.2-.5.5-.7.7-.2.3-.3.6-.3 1.1 0 .5.2.9.6 1.2.4.3 1.1.5 2.2.5h3.1c1.9 0 3.3.3 4.3.9 1 .6 1.4 1.6 1.4 3 0 .8-.2 1.5-.6 2.2-.4.7-.9 1.3-1.6 1.8-.7.5-1.6.9-2.6 1.2-1.2.3-2.4.5-3.6.5zm0-23.8c-.8 0-1.6.1-2.3.4-.7.3-1.4.6-1.9 1.1-.5.5-1 1.1-1.3 1.8-.3.7-.5 1.5-.5 2.3 0 .9.2 1.8.6 2.5.4.7.9 1.3 1.4 1.7v.2c-.4.3-.8.7-1.2 1.2-.4.5-.5 1.1-.5 1.7 0 .6.1 1.1.4 1.5.3.4.6.7 1 1v.4c-.7.5-1.3 1.1-1.7 1.7-.4.6-.6 1.2-.6 1.9s.2 1.3.5 1.8.8 1 1.3 1.3c.6.4 1.3.6 2.1.8.8.2 1.7.3 2.7.3 1.2 0 2.4-.1 3.4-.4 1-.3 1.8-.7 2.5-1.2s1.2-1.1 1.6-1.7c.4-.7.5-1.4.5-2.1 0-1.3-.5-2.3-1.4-2.8-.9-.6-2.3-.9-4.2-.9H373c-1.1 0-1.9-.2-2.3-.5-.4-.3-.6-.8-.6-1.3s.1-.8.3-1.2c.2-.3.5-.6.7-.8h.1c.4.2.8.3 1.2.4.4.1.8.1 1.2.1.8 0 1.6-.1 2.3-.4.7-.3 1.3-.6 1.8-1.1.5-.5.9-1 1.2-1.7.3-.7.5-1.4.5-2.3 0-.7-.1-1.3-.4-1.8-.2-.6-.6-1-.9-1.4l-.1-.3h3.4V7.6h-5.5c-.3-.1-.6-.2-1-.3-.4-.1-.8-.1-1.2-.1zm.4 21.9c-1.5 0-2.6-.3-3.5-.8-.9-.5-1.3-1.2-1.3-2.1 0-.5.1-1 .4-1.4.3-.5.7-.9 1.3-1.4.3.1.7.2 1.1.2h3.8c1.1 0 1.9.1 2.5.4.6.3.9.9.9 1.6 0 .4-.1.9-.4 1.3-.2.4-.6.8-1.1 1.1-.4.3-1 .6-1.6.7-.6.3-1.3.4-2.1.4zm-3-5.5c-.5.4-.9.8-1.2 1.3-.3.4-.4.9-.4 1.3 0 .8.4 1.5 1.2 2 .8.5 1.9.7 3.4.7.8 0 1.5-.1 2.1-.3.6-.2 1.1-.4 1.6-.7.4-.3.8-.6 1-1 .2-.4.3-.8.3-1.2 0-.7-.3-1.2-.8-1.5-.5-.3-1.3-.4-2.4-.4h-2.8c-.3 0-.7 0-1-.1-.3.1-.7 0-1-.1zm2.6-6.9c-.5 0-.9-.1-1.3-.3-.4-.2-.8-.4-1.1-.8-.3-.3-.6-.8-.8-1.2-.2-.5-.3-1-.3-1.6 0-1.2.3-2.2 1-2.8.7-.7 1.5-1 2.5-1s1.8.3 2.5 1 1 1.6 1 2.8c0 .6-.1 1.2-.3 1.6-.2.5-.4.9-.8 1.2-.3.3-.7.6-1.1.8-.4.2-.8.3-1.3.3zm0-7.6c-.9 0-1.7.3-2.3.9-.6.6-1 1.5-1 2.7 0 .6.1 1.1.3 1.6.2.5.4.9.7 1.2.3.3.7.6 1.1.7.8.3 1.7.3 2.5 0 .4-.2.7-.4 1.1-.7.4-.3.5-.7.7-1.2.2-.5.3-1 .3-1.6 0-1.2-.3-2.1-1-2.7-.7-.5-1.5-.9-2.4-.9zM390.9 23.9c-1.1 0-2.1-.2-3-.6-.9-.4-1.7-.9-2.4-1.6-.7-.7-1.2-1.6-1.6-2.6-.4-1-.6-2.2-.6-3.5 0-1.3.2-2.5.6-3.5.4-1 .9-1.9 1.6-2.7.7-.8 1.4-1.3 2.3-1.7.9-.4 1.7-.6 2.7-.6 1 0 1.9.2 2.7.5.8.4 1.5.9 2 1.5.5.7 1 1.5 1.2 2.4.3.9.4 2 .4 3.1v.8c0 .3 0 .5-.1.7h-10.8c.1 1.7.6 3.1 1.6 4.1 1 1 2.2 1.5 3.7 1.5.8 0 1.5-.1 2.1-.3.6-.2 1.3-.5 1.9-.9l1 1.8c-.7.4-1.5.8-2.3 1.2-.9.2-1.9.4-3 .4zm-5.1-9.7h8.6c0-1.6-.3-2.9-1-3.7-.7-.8-1.7-1.3-2.9-1.3-.6 0-1.1.1-1.6.3-.5.2-1 .5-1.4 1-.4.4-.8 1-1 1.6-.4.6-.6 1.3-.7 2.1z" fill="#012A4C"/>
    <path d="M390.9 24c-1.1 0-2.1-.2-3.1-.6-.9-.4-1.8-.9-2.5-1.7-.7-.7-1.3-1.6-1.7-2.7-.4-1-.6-2.2-.6-3.6 0-1.3.2-2.5.6-3.6.4-1.1 1-2 1.6-2.7.7-.7 1.5-1.3 2.3-1.7.9-.4 1.8-.6 2.7-.6 1 0 2 .2 2.8.5.8.4 1.5.9 2 1.5.5.7 1 1.5 1.3 2.4.3.9.4 2 .4 3.1v.8c0 .3 0 .5-.1.7v.1H386c.1 1.6.6 2.9 1.6 3.9.9 1 2.2 1.5 3.7 1.5.8 0 1.5-.1 2.1-.3.6-.2 1.3-.5 1.8-.9l.1-.1 1.1 2h-.1c-.7.4-1.5.8-2.4 1.2-.9.6-1.9.8-3 .8zm-.5-16.8c-.9 0-1.8.2-2.6.6-.8.4-1.6.9-2.3 1.6-.7.7-1.2 1.6-1.6 2.6-.4 1-.6 2.2-.6 3.5 0 1.3.2 2.5.6 3.5.4 1 .9 1.9 1.6 2.6.7.7 1.5 1.2 2.4 1.6.9.4 1.9.6 3 .6s2.1-.2 2.9-.5c.8-.3 1.6-.7 2.2-1.1l-.9-1.6c-.6.4-1.2.6-1.8.9-.7.2-1.4.4-2.2.4-1.6 0-2.8-.5-3.8-1.5s-1.5-2.4-1.6-4.1v-.1h10.8c0-.2.1-.4.1-.6v-.8c0-1.1-.1-2.2-.4-3.1-.3-.9-.7-1.7-1.2-2.3-.5-.6-1.2-1.1-2-1.5-.7-.6-1.6-.7-2.6-.7zm4.1 7.1h-8.8v-.1c.1-.8.3-1.5.6-2.1.3-.6.6-1.2 1.1-1.6.4-.4.9-.8 1.4-1 .5-.2 1.1-.3 1.7-.3 1.3 0 2.3.4 3 1.3.7.9 1.1 2.1 1.1 3.8h-.1zm-8.6-.2h8.4c0-1.5-.4-2.7-1-3.5-.7-.8-1.6-1.2-2.8-1.2-.6 0-1.1.1-1.6.3-.5.2-1 .5-1.4 1-.4.4-.8.9-1 1.5-.3.5-.5 1.2-.6 1.9zM400.7 23.5v-16h2.2l.2 2.3h.1c.8-.8 1.6-1.4 2.4-1.9.8-.5 1.8-.8 3-.8 1.7 0 2.9.5 3.7 1.6.8 1.1 1.2 2.6 1.2 4.7v10.2h-2.7v-9.8c0-1.5-.2-2.6-.7-3.3-.5-.7-1.3-1-2.3-1-.8 0-1.6.2-2.2.6-.6.4-1.4 1-2.2 1.8v11.6h-2.7z" fill="#012A4C"/>
    <path d="M413.6 23.6h-2.9v-9.9c0-1.5-.2-2.6-.7-3.2-.5-.6-1.2-1-2.2-1-.8 0-1.5.2-2.2.6-.6.4-1.3 1-2.1 1.8v11.7h-2.9V7.4h2.4l.2 2.3c.8-.7 1.6-1.4 2.4-1.9.9-.5 1.9-.8 3-.8 1.7 0 3 .5 3.8 1.6.8 1.1 1.2 2.7 1.2 4.7v10.3zm-2.7-.2h2.5V13.3c0-2-.4-3.6-1.2-4.6-.8-1-2-1.5-3.6-1.5-1.1 0-2.1.3-2.9.8-.8.5-1.6 1.2-2.4 1.9h-.2l-.2-2.3h-2.1v15.8h2.5V11.8c.8-.8 1.6-1.4 2.2-1.9.7-.4 1.4-.6 2.3-.6 1.1 0 1.9.4 2.4 1 .5.7.7 1.8.7 3.3v9.8zM425 23.9c-1.1 0-2-.2-3-.6-1-.4-1.7-.9-2.4-1.6-.7-.7-1.2-1.6-1.6-2.6-.4-1-.6-2.2-.6-3.5 0-1.3.2-2.5.6-3.6.4-1.1 1-1.9 1.7-2.7.7-.8 1.5-1.3 2.5-1.6.9-.4 1.9-.6 3-.6s2 .2 2.7.6c.7.4 1.4.8 2 1.3l-1.4 1.8c-.5-.4-1-.8-1.5-1-.5-.2-1.1-.4-1.7-.4-.7 0-1.4.1-2 .4-.6.3-1.1.7-1.6 1.3-.4.6-.8 1.2-1 2-.3.8-.4 1.6-.4 2.5 0 .9.1 1.8.4 2.5.2.7.6 1.4 1 1.9s1 1 1.6 1.3c.6.3 1.3.4 2 .4s1.4-.2 2.1-.5c.6-.3 1.2-.7 1.7-1.1l1.2 1.8c-.7.6-1.5 1.1-2.4 1.5-1 .3-1.9.5-2.9.5z" fill="#012A4C"/>
    <path d="M425 24c-1.1 0-2.1-.2-3-.6-.9-.4-1.8-.9-2.4-1.7-.7-.7-1.2-1.6-1.6-2.7-.4-1.1-.6-2.3-.6-3.6 0-1.3.2-2.6.6-3.6.4-1 1-2 1.7-2.7.7-.7 1.5-1.3 2.5-1.7.9-.4 1.9-.6 3-.6s2 .2 2.8.6c.8.4 1.4.8 2 1.3l.1.1-1.5 1.9-.1-.1c-.5-.4-.9-.7-1.4-1-.5-.3-1.1-.4-1.7-.4-.7 0-1.4.1-2 .4-.6.3-1.1.7-1.5 1.2-.4.5-.8 1.2-1 1.9-.2.7-.4 1.6-.4 2.5 0 .9.1 1.7.4 2.5.2.7.6 1.4 1 1.9s.9.9 1.5 1.2c.6.3 1.3.4 2 .4s1.4-.2 2-.5c.6-.3 1.2-.7 1.7-1.1l.1-.1 1.3 2-.1.1c-.7.6-1.5 1.2-2.4 1.5-1.1.7-2 .9-3 .9zm.2-16.8c-1 0-2 .2-2.9.6-.9.4-1.7.9-2.4 1.6-.7.7-1.3 1.6-1.7 2.6-.4 1-.6 2.2-.6 3.5 0 1.3.2 2.5.6 3.5.4 1 .9 1.9 1.6 2.6.7.7 1.5 1.2 2.4 1.6.9.4 1.9.6 2.9.6.9 0 1.9-.2 2.7-.5.8-.3 1.6-.8 2.3-1.4l-1.1-1.6c-.5.4-1 .8-1.6 1.1-.6.3-1.3.5-2.1.5-.7 0-1.4-.2-2.1-.5-.6-.3-1.2-.7-1.6-1.3-.4-.5-.8-1.2-1-2-.2-.8-.4-1.6-.4-2.5 0-.9.1-1.8.4-2.6.3-.8.6-1.4 1.1-2 .4-.6 1-1 1.6-1.3.6-.3 1.3-.5 2.1-.5.7 0 1.2.1 1.8.4.5.3 1 .6 1.4 1l1.3-1.6c-.5-.5-1.2-.9-1.9-1.2-.9-.5-1.8-.6-2.8-.6zM434.1 30.4c-.4 0-.7 0-1-.1-.3-.1-.6-.1-.9-.2l.5-2.1c.2 0 .4.1.6.1.2.1.4.1.6.1.9 0 1.7-.3 2.3-1 .6-.6 1-1.5 1.4-2.5l.4-1.2-6.4-16.1h2.8l3.3 8.9c.2.7.5 1.4.8 2.2.3.8.5 1.5.8 2.3h.1c.2-.7.5-1.5.7-2.3.2-.8.4-1.5.7-2.2l2.9-8.9h2.6l-6 17.4c-.3.8-.6 1.5-1 2.2-.4.7-.8 1.3-1.3 1.8s-1 .9-1.6 1.2c-.8.2-1.5.4-2.3.4z" fill="#012A4C"/>
    <path d="M434.1 30.5c-.4 0-.7 0-1-.1-.3-.1-.6-.1-.9-.3h-.1l.6-2.3.7.2c.2.1.4.1.6.1.9 0 1.6-.3 2.2-.9.6-.6 1-1.5 1.3-2.4l.4-1.2-6.5-16.2h3v.1l3.3 8.9c.2.7.5 1.4.8 2.2.3.7.5 1.5.7 2.2.2-.7.5-1.4.7-2.2.2-.8.4-1.5.7-2.2l2.9-8.9h2.9v.1l-6 17.4c-.3.8-.6 1.5-1 2.2-.4.7-.8 1.3-1.3 1.8s-1.1.9-1.7 1.2c-.7.1-1.5.3-2.3.3zm-1.8-.5c.2.1.5.2.8.2.3.1.6.1 1 .1.8 0 1.5-.1 2.1-.4.6-.3 1.1-.7 1.6-1.2s.9-1.1 1.2-1.7c.3-.7.7-1.4 1-2.2l6-17.2h-2.4l-2.8 8.8c-.2.7-.4 1.5-.7 2.2-.2.8-.4 1.5-.7 2.3v.1h-.3v-.1c-.2-.8-.5-1.5-.8-2.3-.3-.8-.5-1.5-.8-2.2l-3.2-8.8h-2.6l6.4 16-.4 1.2c-.3 1-.8 1.8-1.4 2.5-.6.7-1.4 1-2.3 1-.2 0-.4 0-.7-.1l-.5-.1-.5 1.9zM136.2 61.3V47.5H134v-2l2.2-.2v-2.5c0-1.6.4-2.9 1.1-3.9.8-.9 1.9-1.4 3.5-1.4.5 0 1 0 1.4.1.5.1.9.2 1.2.4l-.4 2c-.6-.3-1.2-.4-1.8-.4-1.5 0-2.2 1-2.2 3.1v2.5h3.4v2.2H139v13.8h-2.8v.1z" fill="#012A4C"/>
    <path d="M139 61.4h-2.9V47.6h-2.2v-2.2l2.2-.2v-2.4c0-1.7.4-3 1.2-4 .8-1 2-1.5 3.6-1.5.5 0 1 .1 1.5.2.4.1.9.2 1.3.4h.1l-.7 2.3h-.1c-.6-.3-1.2-.4-1.8-.4-1.4 0-2.1 1-2.1 3v2.4h3.4v2.4H139v13.8zm-2.7-.2h2.5V47.4h3.4v-2h-3.4v-2.6c0-2.1.8-3.2 2.3-3.2.6 0 1.2.1 1.7.4l.5-1.9c-.3-.1-.7-.3-1.1-.3-.4-.1-.9-.1-1.4-.1-1.6 0-2.7.5-3.5 1.4-.7.9-1.1 2.2-1.1 3.8v2.6l-2.2.2v1.9h2.2v13.6h.1zM151.2 61.7c-1 0-1.9-.2-2.8-.6-.9-.4-1.7-.9-2.4-1.6-.7-.7-1.2-1.6-1.6-2.6-.4-1-.6-2.2-.6-3.5 0-1.3.2-2.5.6-3.6.4-1 1-1.9 1.6-2.7.6-.8 1.5-1.3 2.4-1.6.9-.4 1.8-.6 2.8-.6 1 0 1.9.2 2.8.6.9.4 1.7.9 2.4 1.6.7.7 1.2 1.6 1.6 2.7.4 1 .6 2.2.6 3.6 0 1.3-.2 2.5-.6 3.5-.4 1-1 1.9-1.6 2.6-.7.7-1.5 1.3-2.4 1.6-.8.4-1.8.6-2.8.6zm0-2.3c.7 0 1.3-.1 1.9-.4.6-.3 1.1-.7 1.5-1.3.4-.5.7-1.2.9-1.9.2-.7.3-1.6.3-2.5 0-.9-.1-1.8-.3-2.5-.2-.8-.5-1.4-.9-2-.4-.5-.9-1-1.5-1.3-.6-.3-1.2-.4-1.9-.4s-1.3.1-1.9.4c-.6.3-1.1.7-1.5 1.3-.4.6-.7 1.2-.9 2-.2.8-.3 1.6-.3 2.5 0 .9.1 1.8.3 2.5.2.7.5 1.4.9 1.9s.9 1 1.5 1.3c.6.3 1.3.4 1.9.4z" fill="#012A4C"/>
    <path d="M151.2 61.8c-1 0-2-.2-2.9-.6-.9-.4-1.7-.9-2.4-1.7-.7-.7-1.2-1.6-1.7-2.7-.4-1-.6-2.3-.6-3.6 0-1.4.2-2.6.6-3.6.4-1.1 1-2 1.7-2.7.7-.7 1.5-1.3 2.4-1.7.9-.4 1.9-.6 2.9-.6s2 .2 2.9.6c.9.4 1.7.9 2.4 1.7.7.7 1.2 1.6 1.7 2.7.4 1.1.6 2.3.6 3.6 0 1.3-.2 2.5-.6 3.6-.4 1.1-1 2-1.7 2.7-.7.7-1.5 1.3-2.4 1.7-.9.4-1.9.6-2.9.6zm0-16.8c-1 0-1.9.2-2.8.6-.9.4-1.7.9-2.3 1.6-.7.7-1.2 1.6-1.6 2.6-.4 1-.6 2.2-.6 3.5 0 1.3.2 2.5.6 3.5.4 1 .9 1.9 1.6 2.6.7.7 1.5 1.2 2.3 1.6.9.4 1.8.6 2.8.6 1 0 1.9-.2 2.8-.6.9-.4 1.7-.9 2.3-1.6.7-.7 1.2-1.6 1.6-2.6.4-1 .6-2.2.6-3.5 0-1.3-.2-2.5-.6-3.5-.4-1-.9-1.9-1.6-2.6-.7-.7-1.5-1.3-2.3-1.6-.9-.5-1.8-.6-2.8-.6zm0 14.5c-.7 0-1.3-.2-1.9-.5-.6-.3-1.1-.7-1.5-1.3-.4-.5-.7-1.2-1-2-.2-.8-.3-1.6-.3-2.5 0-.9.1-1.8.3-2.6.2-.8.5-1.4 1-2 .4-.6.9-1 1.5-1.3.6-.3 1.2-.5 1.9-.5s1.3.2 1.9.5c.6.3 1.1.7 1.5 1.3.4.6.7 1.2 1 2 .2.8.3 1.6.3 2.6s-.1 1.8-.3 2.5c-.2.8-.5 1.4-1 2-.4.5-.9 1-1.5 1.3-.5.4-1.2.5-1.9.5zm0-12.3c-.7 0-1.3.1-1.8.4-.6.3-1 .7-1.4 1.2-.4.5-.7 1.2-.9 1.9-.2.7-.3 1.6-.3 2.5 0 .9.1 1.7.3 2.5.2.7.5 1.4.9 1.9s.9.9 1.4 1.2c.6.3 1.2.4 1.8.4.7 0 1.3-.1 1.8-.4.6-.3 1-.7 1.4-1.2.4-.5.7-1.2.9-1.9.2-.7.3-1.6.3-2.5 0-.9-.1-1.7-.3-2.5-.2-.7-.5-1.4-.9-1.9s-.9-1-1.4-1.2c-.5-.2-1.1-.4-1.8-.4zM162.8 61.3v-16h2.2l.2 2.9h.1c.5-1 1.2-1.8 2-2.4.8-.6 1.6-.9 2.6-.9.6 0 1.2.1 1.7.3l-.5 2.4c-.3-.1-.5-.2-.7-.2-.2 0-.5-.1-.8-.1-.7 0-1.4.3-2.1.8-.7.6-1.4 1.5-1.9 2.9v10.3h-2.8z" fill="#012A4C"/>
    <path d="M165.6 61.4h-2.9V45.2h2.4l.2 2.8c.5-1 1.2-1.7 1.9-2.3.8-.6 1.7-.9 2.6-.9.6 0 1.2.1 1.8.3h.1l-.6 2.6h-.1c-.3-.1-.5-.2-.7-.2-.2 0-.5-.1-.8-.1-.7 0-1.4.3-2.1.8-.7.5-1.4 1.5-1.9 2.8v10.4h.1zm-2.7-.2h2.5V51c.6-1.4 1.2-2.4 2-2.9.8-.6 1.5-.8 2.2-.8.3 0 .6 0 .8.1.2 0 .4.1.6.2l.5-2.2c-.5-.2-1-.3-1.6-.3-.9 0-1.7.3-2.5.9-.8.6-1.4 1.4-2 2.4v.1h-.3l-.2-2.9h-2.1v15.6h.1zM181 61.3V39.6h6.2c1.2 0 2.3.1 3.3.3 1 .2 1.9.6 2.6 1.1.7.5 1.3 1.1 1.7 2 .4.8.6 1.8.6 3 0 1.1-.2 2.1-.6 3-.4.8-.9 1.5-1.6 2.1-.7.6-1.5 1-2.5 1.2-1 .3-2.1.4-3.2.4h-3.6v8.6H181zm2.7-10.8h3.2c1.9 0 3.3-.4 4.2-1.1.9-.7 1.4-1.8 1.4-3.4 0-1.6-.5-2.6-1.4-3.3-1-.6-2.4-.9-4.3-.9h-3.1v8.7z" fill="#012A4C"/>
    <path d="M183.8 61.4h-2.9V39.5h6.3c1.2 0 2.3.1 3.3.3 1 .2 1.9.6 2.6 1.1.7.5 1.3 1.2 1.7 2 .4.8.6 1.9.6 3 0 1.2-.2 2.2-.6 3-.4.8-.9 1.6-1.7 2.1-.7.6-1.6 1-2.6 1.3-1 .3-2.1.4-3.3.4h-3.5v8.7h.1zm-2.7-.2h2.5v-8.6h3.7c1.2 0 2.3-.1 3.2-.4 1-.3 1.8-.7 2.5-1.2s1.2-1.2 1.6-2c.4-.8.6-1.8.6-2.9 0-1.2-.2-2.2-.6-3-.4-.8-.9-1.4-1.6-1.9-.7-.5-1.5-.8-2.5-1.1-1-.2-2.1-.3-3.3-.3h-6.1v21.4zm5.9-10.6h-3.3v-8.8h3.2c1.9 0 3.4.3 4.3.9 1 .6 1.5 1.7 1.5 3.3 0 1.6-.5 2.7-1.4 3.5-1 .7-2.4 1.1-4.3 1.1zm-3.2-.2h3.1c1.9 0 3.3-.4 4.1-1.1.9-.7 1.3-1.8 1.3-3.3 0-1.5-.5-2.6-1.4-3.2-.9-.6-2.4-.9-4.2-.9h-3v8.5h.1zM204 61.7c-1.7 0-3-.5-3.7-1.6-.8-1.1-1.2-2.6-1.2-4.7V45.3h2.7v9.8c0 1.5.2 2.6.7 3.3.5.7 1.2 1 2.3 1 .8 0 1.6-.2 2.2-.6.6-.4 1.3-1.1 2.1-2.1V45.3h2.7v16h-2.2l-.2-2.5h-.1c-.7.9-1.5 1.6-2.4 2.1-.9.5-1.7.8-2.9.8z" fill="#012A4C"/>
    <path d="M204 61.8c-1.7 0-3-.5-3.8-1.6-.8-1.1-1.2-2.7-1.2-4.7V45.2h2.9v9.9c0 1.5.2 2.6.7 3.2.5.6 1.2 1 2.2 1 .8 0 1.5-.2 2.2-.6.6-.4 1.3-1.1 2.1-2V45.2h2.9v16.2h-2.4l-.2-2.5c-.7.8-1.5 1.5-2.3 2.1-.9.5-1.9.8-3.1.8zm-4.8-16.4v10.1c0 2 .4 3.6 1.2 4.6.8 1 2 1.5 3.7 1.5 1.1 0 2.1-.3 2.9-.8.8-.5 1.6-1.2 2.3-2.1h.2l.2 2.5h2.1V45.4h-2.5v11.3c-.8.9-1.5 1.6-2.1 2.1-.7.4-1.4.7-2.3.7-1.1 0-1.9-.4-2.4-1-.5-.7-.7-1.8-.7-3.3v-9.7h-2.6v-.1zM224.3 61.7c-.7 0-1.5-.2-2.3-.5-.8-.4-1.6-.9-2.3-1.5h-.1l-.2 1.6h-2.2V37.8h2.7v6.4l-.1 2.9c.7-.6 1.5-1.2 2.4-1.6.9-.4 1.7-.6 2.6-.6 1 0 1.9.2 2.7.6.8.4 1.5.9 2 1.6.5.7.9 1.6 1.2 2.6.3 1 .4 2.1.4 3.3 0 1.4-.2 2.6-.6 3.7-.4 1.1-.9 2-1.5 2.7-.6.7-1.4 1.3-2.2 1.7-.7.4-1.5.6-2.5.6zm-.4-2.3c.7 0 1.3-.1 1.8-.4.6-.3 1-.7 1.5-1.3.4-.5.7-1.2 1-2 .2-.8.3-1.7.3-2.7 0-.9-.1-1.7-.2-2.4-.2-.7-.4-1.3-.7-1.9-.3-.5-.8-.9-1.3-1.2-.5-.3-1.2-.4-1.9-.4-1.3 0-2.7.7-4.3 2.2v8.4c.7.6 1.4 1.1 2.1 1.3.5.3 1.1.4 1.7.4z" fill="#012A4C"/>
    <path d="M224.3 61.8c-.8 0-1.6-.2-2.4-.6-.8-.4-1.5-.9-2.2-1.5l-.2 1.6h-2.4V37.7h2.9v6.5l-.1 2.7c.7-.6 1.4-1.1 2.2-1.5.9-.4 1.8-.7 2.7-.7 1 0 2 .2 2.8.6.8.4 1.5 1 2 1.7s1 1.6 1.2 2.6c.3 1 .4 2.1.4 3.4 0 1.4-.2 2.6-.6 3.7-.4 1.1-.9 2-1.5 2.8-.6.8-1.4 1.3-2.2 1.7-.7.4-1.6.6-2.6.6zm-4.7-2.3h.2c.7.6 1.4 1.1 2.2 1.5.8.4 1.6.5 2.3.5.9 0 1.8-.2 2.6-.6.8-.4 1.5-.9 2.2-1.7.6-.7 1.1-1.6 1.5-2.7.4-1.1.6-2.3.6-3.6 0-1.2-.1-2.3-.4-3.3-.3-1-.7-1.8-1.2-2.5s-1.2-1.2-2-1.6c-.8-.4-1.7-.6-2.7-.6-.9 0-1.8.2-2.6.6-.8.4-1.6 1-2.4 1.6l-.2.2.1-3.1v-6.3h-2.5v23.3h2l.3-1.7zm4.3 0c-.5 0-1.2-.1-1.9-.4-.7-.3-1.4-.7-2.1-1.3v-8.5c1.6-1.5 3-2.2 4.4-2.2.8 0 1.4.1 2 .4.6.3 1 .7 1.4 1.2.3.5.6 1.2.8 1.9.2.7.2 1.5.2 2.4 0 1-.1 1.9-.4 2.7-.2.8-.6 1.5-1 2s-.9 1-1.5 1.3c-.6.4-1.3.5-1.9.5zm-3.9-1.8c.7.6 1.4 1 2 1.3.7.2 1.3.4 1.8.4.6 0 1.2-.1 1.8-.4.5-.3 1-.7 1.4-1.2.4-.5.7-1.2.9-2 .2-.8.3-1.7.3-2.6 0-.9-.1-1.7-.2-2.4-.2-.7-.4-1.3-.7-1.8-.3-.5-.8-.9-1.3-1.2-.5-.3-1.2-.4-1.9-.4-1.3 0-2.7.7-4.2 2.1v8.2h.1zM238.3 61.7c-1 0-1.8-.3-2.2-.9-.4-.6-.7-1.5-.7-2.7V37.8h2.7v20.5c0 .4.1.7.2.9.2.2.3.3.5.3h.2c.1 0 .2 0 .3-.1l.4 2c-.2.1-.4.2-.6.2-.1.1-.4.1-.8.1z" fill="#012A4C"/>
    <path d="M238.3 61.8c-1.1 0-1.8-.3-2.3-1-.5-.6-.7-1.6-.7-2.8V37.7h2.9v20.6c0 .4.1.7.2.9.1.2.3.2.5.2h.2s.1 0 .3-.1h.1l.4 2.2h-.1c-.2.1-.4.2-.7.2-.1.1-.4.1-.8.1zm-2.8-23.9v20.2c0 1.2.2 2.1.6 2.6.4.6 1.1.9 2.1.9.4 0 .7 0 .9-.1.2 0 .4-.1.5-.2l-.3-1.9h-.5c-.2 0-.4-.1-.6-.3-.2-.2-.3-.5-.3-1V37.9h-2.4zM245.2 42c-.5 0-1-.2-1.3-.5-.4-.3-.5-.7-.5-1.3 0-.5.2-1 .5-1.3.4-.3.8-.5 1.3-.5s1 .2 1.3.5c.4.3.5.7.5 1.3 0 .5-.2.9-.5 1.3-.4.3-.8.5-1.3.5zm-1.4 19.3v-16h2.7v16h-2.7z" fill="#012A4C"/>
    <path d="M246.6 61.4h-2.9V45.2h2.9v16.2zm-2.7-.2h2.5V45.4h-2.5v15.8zm1.3-19.1c-.6 0-1-.2-1.4-.5-.4-.3-.6-.8-.6-1.3 0-.6.2-1 .6-1.3.4-.3.9-.5 1.4-.5.6 0 1 .2 1.4.5.4.3.6.8.6 1.3s-.2 1-.6 1.3c-.4.3-.9.5-1.4.5zm0-3.5c-.5 0-.9.2-1.3.5-.3.3-.5.7-.5 1.2s.2.9.5 1.2c.3.3.8.5 1.3.5s.9-.2 1.3-.5c.3-.3.5-.7.5-1.2s-.2-.9-.5-1.2c-.4-.4-.8-.5-1.3-.5zM258.2 61.7c-1.1 0-2-.2-3-.6-1-.4-1.7-.9-2.4-1.6-.7-.7-1.2-1.6-1.6-2.6-.4-1-.6-2.2-.6-3.5 0-1.3.2-2.5.6-3.6.4-1.1 1-1.9 1.7-2.7.7-.8 1.5-1.3 2.5-1.6.9-.4 1.9-.6 3-.6s2 .2 2.7.6c.7.4 1.4.8 2 1.3l-1.4 1.8c-.5-.4-1-.8-1.5-1-.5-.2-1.1-.4-1.7-.4-.7 0-1.4.1-2 .4-.6.3-1.1.7-1.6 1.3-.4.6-.8 1.2-1 2-.3.8-.4 1.6-.4 2.5 0 .9.1 1.8.4 2.5.2.7.6 1.4 1 1.9s1 1 1.6 1.3c.6.3 1.3.4 2 .4s1.4-.2 2.1-.5c.6-.3 1.2-.7 1.7-1.1l1.2 1.8c-.7.6-1.5 1.1-2.4 1.5-1.1.3-2 .5-2.9.5z" fill="#012A4C"/>
    <path d="M258.2 61.8c-1.1 0-2.1-.2-3-.6-.9-.4-1.8-.9-2.4-1.7-.7-.7-1.2-1.6-1.6-2.7-.4-1-.6-2.3-.6-3.6 0-1.3.2-2.6.6-3.6.4-1.1 1-2 1.7-2.7.7-.7 1.5-1.3 2.5-1.7.9-.4 2-.6 3-.6 1.1 0 2 .2 2.8.6.8.4 1.4.8 2 1.3l.1.1-1.5 1.9-.1-.1c-.5-.4-.9-.8-1.4-1-.5-.3-1.1-.4-1.7-.4-.7 0-1.4.1-2 .4-.6.3-1.1.7-1.5 1.2-.4.5-.8 1.2-1 1.9-.2.7-.4 1.6-.4 2.5 0 .9.1 1.7.4 2.5.2.7.6 1.4 1 1.9s.9.9 1.5 1.2c.6.3 1.3.4 2 .4s1.4-.2 2-.5c.6-.3 1.2-.7 1.7-1.1l.1-.1 1.3 2-.1.1c-.7.6-1.5 1.2-2.4 1.5-1.1.7-2.1.9-3 .9zm.2-16.8c-1 0-2 .2-2.9.6-.9.4-1.7.9-2.4 1.6-.7.7-1.3 1.6-1.7 2.6-.4 1-.6 2.2-.6 3.5 0 1.3.2 2.5.6 3.5.4 1 .9 1.9 1.6 2.6.7.7 1.5 1.2 2.4 1.6.9.4 1.9.6 2.9.6.9 0 1.9-.2 2.7-.5.8-.3 1.6-.8 2.3-1.4l-1.1-1.6c-.5.4-1 .8-1.6 1.1-.6.3-1.3.5-2.1.5-.7 0-1.4-.2-2.1-.5-.6-.3-1.2-.7-1.6-1.3-.4-.5-.8-1.2-1-2-.2-.8-.4-1.6-.4-2.5 0-.9.1-1.8.4-2.6.3-.8.6-1.4 1.1-2 .4-.6 1-1 1.6-1.3.6-.3 1.3-.5 2.1-.5.6 0 1.2.1 1.8.4.5.3 1 .6 1.4 1l1.3-1.6c-.5-.5-1.2-.9-1.9-1.2-.9-.5-1.8-.6-2.8-.6zM277 61.7c-1.3 0-2.5-.4-3.3-1.2-.9-.8-1.3-1.9-1.3-3.4 0-1.8.8-3.1 2.3-4 1.6-.9 4.1-1.6 7.5-2 0-.5 0-1-.1-1.5s-.3-.9-.5-1.3-.6-.7-1-.9c-.4-.2-1-.3-1.6-.3-.9 0-1.8.2-2.6.5-.8.4-1.5.7-2.2 1.2l-1.1-1.9c.7-.5 1.7-1 2.7-1.4 1.1-.5 2.3-.7 3.6-.7 2 0 3.4.6 4.3 1.8.9 1.2 1.3 2.8 1.3 4.8v9.8h-2.2l-.2-1.9h-.1c-.8.6-1.6 1.2-2.5 1.6-1 .6-2 .8-3 .8zm.8-2.2c.8 0 1.5-.2 2.2-.5.7-.4 1.4-.9 2.2-1.6v-4.5c-1.3.2-2.5.4-3.4.6-.9.2-1.7.5-2.2.9-.6.3-1 .7-1.2 1.1-.3.4-.4.9-.4 1.4 0 .9.3 1.6.8 2 .5.4 1.2.6 2 .6z" fill="#012A4C"/>
    <path d="M277 61.8c-1.4 0-2.5-.4-3.4-1.2-.9-.8-1.4-2-1.4-3.4 0-1.8.8-3.2 2.4-4.1 1.6-.9 4.1-1.6 7.4-2 0-.5-.1-.9-.1-1.4-.1-.5-.3-.9-.5-1.3s-.6-.7-1-.9c-.4-.2-.9-.3-1.6-.3-.9 0-1.8.2-2.6.5-.8.4-1.5.7-2.2 1.2l-.1.1-1.2-2.1.1-.1c.7-.5 1.7-1 2.8-1.4 1.1-.5 2.3-.7 3.6-.7 2 0 3.4.6 4.3 1.8.9 1.2 1.3 2.8 1.3 4.9v9.9h-2.4l-.2-1.9c-.8.6-1.6 1.2-2.4 1.6-.8.6-1.7.8-2.8.8zm1.9-14.8c.7 0 1.2.1 1.7.4.4.2.8.6 1 .9.2.4.4.8.5 1.3.1.5.2 1 .2 1.5v.1h-.1c-3.4.4-5.9 1-7.5 2-1.5.9-2.3 2.2-2.3 4 0 1.4.4 2.5 1.3 3.3.9.8 2 1.2 3.3 1.2 1 0 1.9-.2 2.8-.7.9-.4 1.7-1 2.5-1.6h.2l.2 1.9h2.1v-9.7c0-2-.4-3.6-1.3-4.7-.9-1.2-2.3-1.8-4.2-1.8-1.3 0-2.5.2-3.5.7-1 .4-1.9.9-2.6 1.3l1 1.7c.6-.4 1.3-.8 2.1-1.1.8-.5 1.6-.7 2.6-.7zm-1.1 12.6c-.8 0-1.5-.2-2.1-.6-.6-.4-.9-1.1-.9-2.1 0-.5.1-1 .4-1.5.3-.4.7-.8 1.3-1.2.6-.3 1.3-.6 2.2-.9.9-.2 2.1-.5 3.4-.6h.1v4.6c-.8.7-1.5 1.2-2.2 1.6-.6.5-1.4.7-2.2.7zm4.3-6.6c-1.3.2-2.4.4-3.3.6-.9.2-1.6.5-2.2.8-.5.3-.9.7-1.2 1.1-.2.4-.4.9-.4 1.4 0 .9.3 1.5.8 1.9.5.4 1.2.6 2 .6.7 0 1.5-.2 2.1-.5.7-.4 1.4-.9 2.1-1.6V53h.1zM289.9 61.3v-16h2.2l.2 2.3h.1c.8-.8 1.6-1.4 2.4-1.9.8-.5 1.8-.8 3-.8 1.7 0 2.9.5 3.7 1.6.8 1.1 1.2 2.6 1.2 4.7v10.2H300v-9.8c0-1.5-.2-2.6-.7-3.3-.5-.7-1.3-1-2.3-1-.8 0-1.6.2-2.2.6-.6.4-1.4 1-2.2 1.8v11.6h-2.7z" fill="#012A4C"/>
    <path d="M302.8 61.4h-2.9v-9.9c0-1.5-.2-2.6-.7-3.2-.5-.6-1.2-1-2.2-1-.8 0-1.5.2-2.2.6-.6.4-1.3 1-2.1 1.8v11.7h-2.9V45.2h2.4l.2 2.3c.8-.7 1.6-1.4 2.4-1.9.9-.5 1.9-.8 3-.8 1.7 0 3 .5 3.8 1.6.8 1.1 1.2 2.7 1.2 4.7v10.3zm-2.7-.2h2.5V51.1c0-2-.4-3.6-1.2-4.6-.8-1-2-1.5-3.6-1.5-1.1 0-2.1.3-2.9.8-.8.5-1.6 1.2-2.4 1.9h-.2l-.2-2.3H290v15.8h2.5V49.6c.8-.8 1.6-1.4 2.2-1.9.7-.4 1.4-.6 2.3-.6 1.1 0 1.9.4 2.4 1 .5.7.7 1.8.7 3.3v9.8zM313.4 61.7c-2 0-3.6-.7-4.8-2.2-1.2-1.5-1.8-3.5-1.8-6.2 0-1.3.2-2.5.6-3.5.4-1 .9-1.9 1.5-2.7.6-.7 1.4-1.3 2.2-1.7.8-.4 1.7-.6 2.6-.6.9 0 1.7.2 2.4.5s1.4.8 2.1 1.4l-.1-2.7v-6.2h2.7v23.5h-2.2l-.2-1.9h-.1c-.6.6-1.4 1.1-2.2 1.6-.9.5-1.8.7-2.7.7zm.6-2.3c.7 0 1.5-.2 2.1-.5.7-.4 1.3-.9 2-1.7v-8.4c-.7-.6-1.3-1.1-2-1.3-.7-.2-1.3-.4-1.9-.4-.6 0-1.2.1-1.8.4-.6.3-1.1.7-1.5 1.3-.4.5-.7 1.2-1 1.9-.2.7-.4 1.6-.4 2.5 0 1.9.4 3.4 1.2 4.5.8 1.2 1.9 1.7 3.3 1.7z" fill="#012A4C"/>
    <path d="M313.4 61.8c-2 0-3.7-.7-4.9-2.2-1.2-1.5-1.8-3.6-1.8-6.3 0-1.3.2-2.5.6-3.5.4-1.1.9-2 1.6-2.7.6-.7 1.4-1.3 2.2-1.7.8-.4 1.8-.6 2.7-.6.9 0 1.8.2 2.5.5.6.3 1.3.7 1.9 1.2L318 44v-6.3h2.9v23.7h-2.4l-.2-1.9c-.6.6-1.4 1.1-2.2 1.6-.9.5-1.8.7-2.7.7zm.3-16.8c-.9 0-1.8.2-2.6.6-.8.4-1.6.9-2.2 1.7-.6.7-1.1 1.6-1.5 2.6-.4 1-.6 2.2-.6 3.5 0 2.6.6 4.7 1.8 6.1 1.2 1.4 2.8 2.1 4.8 2.1.9 0 1.8-.2 2.6-.7.8-.4 1.5-1 2.2-1.6h.2l.2 1.9h2.1V37.9h-2.5V44l.1 3-.2-.1c-.7-.6-1.4-1-2.1-1.3-.6-.5-1.4-.6-2.3-.6zm.3 14.5c-1.4 0-2.6-.6-3.3-1.7-.8-1.1-1.2-2.6-1.2-4.6 0-.9.1-1.8.4-2.5.2-.8.6-1.4 1-2 .4-.5.9-1 1.5-1.3 1.2-.6 2.6-.6 3.8-.1.6.3 1.3.7 2 1.3v8.5c-.7.8-1.3 1.3-2 1.7-.8.5-1.5.7-2.2.7zm.2-12.3c-.6 0-1.2.1-1.8.4-.5.3-1 .7-1.4 1.2-.4.5-.7 1.2-1 1.9-.2.7-.4 1.6-.4 2.5 0 1.9.4 3.4 1.1 4.5.7 1 1.8 1.6 3.2 1.6.7 0 1.4-.2 2.1-.5.6-.4 1.3-.9 1.9-1.6v-8.3c-.7-.6-1.3-1-1.9-1.3-.6-.2-1.2-.4-1.8-.4zM332.9 61.3V39.6h12.5V42h-9.7v7.3h8.2v2.3h-8.2v9.7h-2.8z" fill="#012A4C"/>
    <path d="M335.8 61.4h-2.9V39.5h12.7V42h-9.7v7.1h8.2v2.5h-8.2v9.8h-.1zm-2.8-.2h2.5v-9.7h8.2v-2.1h-8.2v-7.5h9.7v-2.1H333v21.4zM350.3 42c-.5 0-1-.2-1.3-.5-.4-.3-.5-.7-.5-1.3 0-.5.2-1 .5-1.3.4-.3.8-.5 1.3-.5s1 .2 1.3.5c.4.3.5.7.5 1.3 0 .5-.2.9-.5 1.3-.3.3-.8.5-1.3.5zm-1.4 19.3v-16h2.7v16h-2.7z" fill="#012A4C"/>
    <path d="M351.7 61.4h-2.9V45.2h2.9v16.2zm-2.7-.2h2.5V45.4H349v15.8zm1.3-19.1c-.6 0-1-.2-1.4-.5-.4-.3-.6-.8-.6-1.3 0-.6.2-1 .6-1.3.4-.3.9-.5 1.4-.5.6 0 1 .2 1.4.5.4.3.6.8.6 1.3s-.2 1-.6 1.3c-.4.3-.9.5-1.4.5zm0-3.5c-.5 0-.9.2-1.3.5-.3.3-.5.7-.5 1.2s.2.9.5 1.2c.3.3.8.5 1.3.5s.9-.2 1.3-.5c.3-.3.5-.7.5-1.2s-.2-.9-.5-1.2c-.4-.4-.8-.5-1.3-.5zM357 61.3v-16h2.2l.2 2.3h.1c.8-.8 1.6-1.4 2.4-1.9.8-.5 1.8-.8 3-.8 1.7 0 2.9.5 3.7 1.6.8 1.1 1.2 2.6 1.2 4.7v10.2h-2.7v-9.8c0-1.5-.2-2.6-.7-3.3-.5-.7-1.3-1-2.3-1-.8 0-1.6.2-2.2.6-.6.4-1.4 1-2.2 1.8v11.6H357z" fill="#012A4C"/>
    <path d="M369.9 61.4H367v-9.9c0-1.5-.2-2.6-.7-3.2-.5-.6-1.2-1-2.2-1-.8 0-1.5.2-2.2.6-.6.4-1.3 1-2.1 1.8v11.7h-2.9V45.2h2.4l.2 2.3c.8-.7 1.6-1.4 2.4-1.9.9-.5 1.9-.8 3-.8 1.7 0 3 .5 3.8 1.6.8 1.1 1.2 2.7 1.2 4.7v10.3zm-2.7-.2h2.5V51.1c0-2-.4-3.6-1.2-4.6-.8-1-2-1.5-3.6-1.5-1.1 0-2.1.3-2.9.8-.8.5-1.6 1.2-2.4 1.9h-.2l-.2-2.3h-2.1v15.8h2.5V49.6c.8-.8 1.6-1.4 2.2-1.9.7-.4 1.4-.6 2.3-.6 1.1 0 1.9.4 2.4 1 .5.7.7 1.8.7 3.3v9.8zM378.6 61.7c-1.3 0-2.5-.4-3.3-1.2-.9-.8-1.3-1.9-1.3-3.4 0-1.8.8-3.1 2.3-4 1.6-.9 4.1-1.6 7.5-2 0-.5 0-1-.1-1.5s-.3-.9-.5-1.3-.6-.7-1-.9c-.4-.2-1-.3-1.6-.3-.9 0-1.8.2-2.6.5-.8.4-1.5.7-2.2 1.2l-1.1-1.9c.7-.5 1.7-1 2.7-1.4 1.1-.5 2.3-.7 3.6-.7 2 0 3.4.6 4.3 1.8.9 1.2 1.3 2.8 1.3 4.8v9.8h-2.2l-.2-1.9h-.2c-.8.6-1.6 1.2-2.5 1.6-.9.6-1.8.8-2.9.8zm.8-2.2c.8 0 1.5-.2 2.2-.5.7-.4 1.4-.9 2.2-1.6v-4.5c-1.3.2-2.5.4-3.4.6-.9.2-1.7.5-2.2.9-.6.3-1 .7-1.2 1.1-.3.4-.4.9-.4 1.4 0 .9.3 1.6.8 2 .5.4 1.2.6 2 .6z" fill="#012A4C"/>
    <path d="M378.6 61.8c-1.4 0-2.5-.4-3.4-1.2-.9-.8-1.4-2-1.4-3.4 0-1.8.8-3.2 2.4-4.1 1.6-.9 4.1-1.6 7.4-2 0-.5-.1-.9-.1-1.4-.1-.5-.3-.9-.5-1.3s-.6-.7-1-.9c-.4-.2-.9-.3-1.6-.3-.9 0-1.8.2-2.6.5-.8.4-1.5.7-2.2 1.2l-.1.1-1.2-2.1.1-.1c.7-.5 1.7-1 2.8-1.4 1.1-.5 2.3-.7 3.6-.7 2 0 3.4.6 4.3 1.8.9 1.2 1.3 2.8 1.3 4.9v9.9H384l-.2-1.9c-.8.6-1.6 1.2-2.4 1.6-.8.6-1.7.8-2.8.8zm1.9-14.8c.7 0 1.2.1 1.7.4.4.2.8.6 1 .9.2.4.4.8.5 1.3.1.5.2 1 .2 1.5v.1h-.1c-3.4.4-5.9 1-7.5 2-1.5.9-2.3 2.2-2.3 4 0 1.4.4 2.5 1.3 3.3.9.8 2 1.2 3.3 1.2 1 0 1.9-.2 2.8-.7.9-.4 1.7-1 2.5-1.6h.2l.2 1.9h2.1v-9.7c0-2-.4-3.6-1.3-4.7-.9-1.2-2.3-1.8-4.2-1.8-1.3 0-2.5.2-3.5.7-1 .4-1.9.9-2.6 1.3l1 1.7c.6-.4 1.3-.8 2.1-1.1.8-.5 1.7-.7 2.6-.7zm-1.1 12.6c-.8 0-1.5-.2-2.1-.6-.6-.4-.9-1.1-.9-2.1 0-.5.1-1 .4-1.5.3-.4.7-.8 1.3-1.2.6-.3 1.3-.6 2.2-.9.9-.2 2.1-.5 3.4-.6h.1v4.6c-.8.7-1.5 1.2-2.2 1.6-.6.5-1.4.7-2.2.7zm4.3-6.6c-1.3.2-2.4.4-3.3.6-.9.2-1.6.5-2.2.8-.5.3-.9.7-1.2 1.1-.2.4-.4.9-.4 1.4 0 .9.3 1.5.8 1.9.5.4 1.2.6 2 .6.7 0 1.5-.2 2.1-.5.7-.4 1.4-.9 2.1-1.6V53h.1zM391.5 61.3v-16h2.2l.2 2.3h.1c.8-.8 1.6-1.4 2.4-1.9.8-.5 1.8-.8 3-.8 1.7 0 2.9.5 3.7 1.6.8 1.1 1.2 2.6 1.2 4.7v10.2h-2.7v-9.8c0-1.5-.2-2.6-.7-3.3-.5-.7-1.3-1-2.3-1-.8 0-1.6.2-2.2.6-.6.4-1.4 1-2.2 1.8v11.6h-2.7z" fill="#012A4C"/>
    <path d="M404.4 61.4h-2.9v-9.9c0-1.5-.2-2.6-.7-3.2-.5-.6-1.2-1-2.2-1-.8 0-1.5.2-2.2.6-.6.4-1.3 1-2.1 1.8v11.7h-2.9V45.2h2.4l.2 2.3c.8-.7 1.6-1.4 2.4-1.9.9-.5 1.9-.8 3-.8 1.7 0 3 .5 3.8 1.6.8 1.1 1.2 2.7 1.2 4.7v10.3zm-2.7-.2h2.5V51.1c0-2-.4-3.6-1.2-4.6-.8-1-2-1.5-3.6-1.5-1.1 0-2.1.3-2.9.8-.8.5-1.6 1.2-2.4 1.9h-.2l-.2-2.3h-2.1v15.8h2.5V49.6c.8-.8 1.6-1.4 2.2-1.9.7-.4 1.4-.6 2.3-.6 1.1 0 1.9.4 2.4 1 .5.7.7 1.8.7 3.3v9.8zM415.8 61.7c-1.1 0-2-.2-3-.6-1-.4-1.7-.9-2.4-1.6-.7-.7-1.2-1.6-1.6-2.6-.4-1-.6-2.2-.6-3.5 0-1.3.2-2.5.6-3.6.4-1.1 1-1.9 1.7-2.7.7-.8 1.5-1.3 2.5-1.6.9-.4 1.9-.6 3-.6s2 .2 2.7.6c.7.4 1.4.8 2 1.3l-1.4 1.8c-.5-.4-1-.8-1.5-1-.5-.2-1.1-.4-1.7-.4-.7 0-1.4.1-2 .4-.6.3-1.1.7-1.6 1.3-.4.6-.8 1.2-1 2-.3.8-.4 1.6-.4 2.5 0 .9.1 1.8.4 2.5.2.7.6 1.4 1 1.9s1 1 1.6 1.3c.6.3 1.3.4 2 .4s1.4-.2 2.1-.5c.6-.3 1.2-.7 1.7-1.1l1.2 1.8c-.7.6-1.5 1.1-2.4 1.5-1 .3-1.9.5-2.9.5z" fill="#012A4C"/>
    <path d="M415.8 61.8c-1.1 0-2.1-.2-3-.6-.9-.4-1.8-.9-2.4-1.7-.7-.7-1.2-1.6-1.6-2.7-.4-1-.6-2.3-.6-3.6 0-1.3.2-2.6.6-3.6.4-1 1-2 1.7-2.7.7-.7 1.5-1.3 2.5-1.7.9-.4 2-.6 3-.6 1.1 0 2 .2 2.8.6.8.4 1.4.8 2 1.3l.1.1-1.5 1.9-.1-.1c-.5-.4-.9-.8-1.4-1-.5-.3-1.1-.4-1.7-.4-.7 0-1.4.1-2 .4-.6.3-1.1.7-1.5 1.2-.4.5-.8 1.2-1 1.9-.2.7-.4 1.6-.4 2.5 0 .9.1 1.7.4 2.5.2.7.6 1.4 1 1.9s.9.9 1.5 1.2c.6.3 1.3.4 2 .4s1.4-.2 2-.5c.6-.3 1.2-.7 1.7-1.1l.1-.1.1.1 1.2 1.9-.1.1c-.7.6-1.5 1.2-2.4 1.5-1 .7-2 .9-3 .9zM416 45c-1 0-2 .2-2.9.6-.9.4-1.7.9-2.4 1.6-.7.7-1.3 1.6-1.7 2.6-.4 1-.6 2.2-.6 3.5 0 1.3.2 2.5.6 3.5.4 1 .9 1.9 1.6 2.6.7.7 1.5 1.2 2.4 1.6.9.4 1.9.6 2.9.6.9 0 1.9-.2 2.7-.5.8-.3 1.6-.8 2.3-1.4l-1.1-1.6c-.5.4-1 .8-1.6 1.1-.6.3-1.3.5-2.1.5-.7 0-1.4-.2-2.1-.5-.6-.3-1.2-.7-1.6-1.3-.4-.5-.8-1.2-1-2-.2-.8-.4-1.6-.4-2.5 0-.9.1-1.8.4-2.6.3-.8.6-1.4 1.1-2 .4-.6 1-1 1.6-1.3.6-.3 1.3-.5 2.1-.5.7 0 1.2.1 1.8.4.5.3 1 .6 1.4 1l1.3-1.6c-.5-.5-1.2-.9-1.9-1.2-.8-.5-1.7-.6-2.8-.6zM425.9 42c-.5 0-1-.2-1.3-.5-.4-.3-.5-.7-.5-1.3 0-.5.2-1 .5-1.3.4-.3.8-.5 1.3-.5s1 .2 1.3.5c.4.3.5.7.5 1.3 0 .5-.2.9-.5 1.3-.4.3-.8.5-1.3.5zm-1.4 19.3v-16h2.7v16h-2.7z" fill="#012A4C"/>
    <path d="M427.3 61.4h-2.9V45.2h2.9v16.2zm-2.7-.2h2.5V45.4h-2.5v15.8zm1.3-19.1c-.6 0-1-.2-1.4-.5-.4-.3-.6-.8-.6-1.3 0-.6.2-1 .6-1.3.4-.3.9-.5 1.4-.5.6 0 1 .2 1.4.5.4.3.6.8.6 1.3s-.2 1-.6 1.3c-.4.3-.9.5-1.4.5zm0-3.5c-.5 0-.9.2-1.3.5-.3.3-.5.7-.5 1.2s.2.9.5 1.2c.3.3.8.5 1.3.5s.9-.2 1.3-.5c.3-.3.5-.7.5-1.2s-.2-.9-.5-1.2c-.4-.4-.8-.5-1.3-.5zM436.2 61.7c-1.3 0-2.5-.4-3.3-1.2-.9-.8-1.3-1.9-1.3-3.4 0-1.8.8-3.1 2.3-4 1.6-.9 4.1-1.6 7.5-2 0-.5 0-1-.1-1.5s-.3-.9-.5-1.3-.6-.7-1-.9c-.4-.2-1-.3-1.6-.3-.9 0-1.8.2-2.6.5-.8.4-1.5.7-2.2 1.2l-1.1-1.9c.7-.5 1.7-1 2.7-1.4 1.1-.5 2.3-.7 3.6-.7 2 0 3.4.6 4.3 1.8.9 1.2 1.3 2.8 1.3 4.8v9.8H442l-.2-1.9h-.1c-.8.6-1.6 1.2-2.5 1.6-1 .6-2 .8-3 .8zm.8-2.2c.8 0 1.5-.2 2.2-.5.7-.4 1.4-.9 2.2-1.6v-4.5c-1.3.2-2.5.4-3.4.6-.9.2-1.7.5-2.2.9-.6.3-1 .7-1.2 1.1-.3.4-.4.9-.4 1.4 0 .9.3 1.6.8 2 .5.4 1.2.6 2 .6z" fill="#012A4C"/>
    <path d="M436.2 61.8c-1.4 0-2.5-.4-3.4-1.2-.9-.8-1.4-2-1.4-3.4 0-1.8.8-3.2 2.4-4.1 1.6-.9 4.1-1.6 7.4-2 0-.5-.1-.9-.1-1.4-.1-.5-.3-.9-.5-1.3s-.6-.7-1-.9c-.4-.2-.9-.3-1.6-.3-.9 0-1.8.2-2.6.5-.8.4-1.5.7-2.2 1.2l-.1.1-1.2-2.1.1-.1c.7-.5 1.7-1 2.8-1.4 1.1-.5 2.3-.7 3.6-.7 2 0 3.4.6 4.3 1.8.9 1.2 1.3 2.8 1.3 4.9v9.9h-2.4l-.2-1.9c-.8.6-1.6 1.2-2.4 1.6-.8.6-1.8.8-2.8.8zm1.9-14.8c.7 0 1.2.1 1.7.4.4.2.8.6 1 .9.2.4.4.8.5 1.3.1.5.2 1 .2 1.5v.1h-.1c-3.4.4-5.9 1-7.5 2-1.5.9-2.3 2.2-2.3 4 0 1.4.4 2.5 1.3 3.3.9.8 2 1.2 3.3 1.2 1 0 1.9-.2 2.8-.7.9-.4 1.7-1 2.5-1.6h.2l.2 1.9h2.1v-9.7c0-2-.4-3.6-1.3-4.7-.9-1.2-2.3-1.8-4.2-1.8-1.3 0-2.5.2-3.5.7-1 .4-1.9.9-2.6 1.3l1 1.7c.6-.4 1.3-.8 2.1-1.1.7-.5 1.6-.7 2.6-.7zM437 59.6c-.8 0-1.5-.2-2.1-.6-.6-.4-.9-1.1-.9-2.1 0-.5.1-1 .4-1.5.3-.4.7-.8 1.3-1.2.6-.3 1.3-.6 2.2-.9.9-.2 2.1-.5 3.4-.6h.1v4.6c-.8.7-1.5 1.2-2.2 1.6-.7.5-1.4.7-2.2.7zm4.3-6.6c-1.3.2-2.4.4-3.3.6-.9.2-1.6.5-2.2.8-.5.3-.9.7-1.2 1.1-.2.4-.4.9-.4 1.4 0 .9.3 1.5.8 1.9.5.4 1.2.6 2 .6.7 0 1.5-.2 2.1-.5.7-.4 1.4-.9 2.1-1.6V53h.1zM452 61.7c-1 0-1.8-.3-2.2-.9-.4-.6-.7-1.5-.7-2.7V37.8h2.7v20.5c0 .4.1.7.2.9.2.2.3.3.5.3h.2c.1 0 .2 0 .3-.1l.4 2c-.2.1-.4.2-.6.2-.2.1-.5.1-.8.1z" fill="#012A4C"/>
    <path d="M452 61.8c-1.1 0-1.8-.3-2.3-1-.5-.6-.7-1.6-.7-2.8V37.7h2.9v20.6c0 .4.1.7.2.9.1.2.3.2.5.2h.2s.1 0 .3-.1h.1l.4 2.2h-.1c-.2.1-.4.2-.7.2-.3 0-.5.1-.8.1zm-2.8-23.9v20.2c0 1.2.2 2.1.6 2.6.4.6 1.1.9 2.1.9.4 0 .7 0 .9-.1.2 0 .4-.1.5-.2l-.3-1.9h-.5c-.2 0-.4-.1-.6-.3-.2-.2-.3-.5-.3-1V37.9h-2.4zM464.2 61.3V39.6h3.3l4.2 11.5c.3.7.5 1.5.8 2.3.3.8.5 1.5.8 2.3h.1c.3-.7.5-1.5.7-2.3.2-.8.5-1.5.7-2.3l4.1-11.5h3.3v21.6h-2.6V49.4c0-1 0-2 .1-3.2.1-1.2.2-2.2.2-3.2h-.1l-1.7 4.9-4.1 11.2h-1.8l-4.1-11.2-1.7-4.9h-.1c.1 1 .1 2 .2 3.2.1 1.2.1 2.2.1 3.2v11.9h-2.4z" fill="#012A4C"/>
    <path d="M482.4 61.4h-2.8v-12c0-1 0-2 .1-3.2.1-1.1.2-2 .2-2.9l-1.6 4.7-4.1 11.3h-2v-.1L468.1 48l-1.6-4.7c.1.9.1 1.9.2 2.9.1 1.2.1 2.2.1 3.2v12h-2.7V39.5h3.5v.1l4.2 11.5c.3.7.5 1.5.8 2.3.2.7.5 1.5.7 2.2.2-.7.5-1.4.7-2.2.2-.8.5-1.5.7-2.3l4.1-11.6h3.5v21.9h.1zm-2.6-.2h2.4V39.7H479l-4 11.5c-.3.7-.5 1.5-.7 2.3-.2.8-.5 1.5-.7 2.3v.1h-.3v-.1c-.3-.8-.5-1.5-.8-2.3-.3-.8-.5-1.5-.8-2.3l-4.1-11.5h-3.1v21.4h2.3V49.4c0-1 0-2-.1-3.2-.1-1.2-.1-2.2-.2-3.2v-.1h.3v.1l1.7 4.9 4.1 11.2h1.7l4.1-11.2 1.7-5h.3v.1c-.1 1-.1 2-.2 3.2-.1 1.2-.1 2.2-.1 3.2v11.8h-.3zM491.6 61.7c-1.3 0-2.5-.4-3.3-1.2-.9-.8-1.3-1.9-1.3-3.4 0-1.8.8-3.1 2.3-4 1.6-.9 4.1-1.6 7.5-2 0-.5 0-1-.1-1.5s-.3-.9-.5-1.3-.6-.7-1-.9c-.4-.2-1-.3-1.6-.3-.9 0-1.8.2-2.6.5-.8.4-1.5.7-2.2 1.2l-1.1-1.9c.7-.5 1.7-1 2.7-1.4 1.1-.5 2.3-.7 3.6-.7 2 0 3.4.6 4.3 1.8.9 1.2 1.3 2.8 1.3 4.8v9.8h-2.2l-.2-1.9h-.1c-.8.6-1.6 1.2-2.5 1.6-1 .6-2 .8-3 .8zm.8-2.2c.8 0 1.5-.2 2.2-.5.7-.4 1.4-.9 2.2-1.6v-4.5c-1.3.2-2.5.4-3.4.6-.9.2-1.7.5-2.2.9-.6.3-1 .7-1.2 1.1-.3.4-.4.9-.4 1.4 0 .9.3 1.6.8 2 .5.4 1.2.6 2 .6z" fill="#012A4C"/>
    <path d="M491.6 61.8c-1.4 0-2.5-.4-3.4-1.2-.9-.8-1.4-2-1.4-3.4 0-1.8.8-3.2 2.4-4.1 1.6-.9 4.1-1.6 7.4-2 0-.5-.1-.9-.1-1.4-.1-.5-.3-.9-.5-1.3s-.6-.7-1-.9c-.4-.2-.9-.3-1.6-.3-.9 0-1.8.2-2.6.5-.8.4-1.5.7-2.2 1.2l-.1.1-1.2-2.1.1-.1c.7-.5 1.7-1 2.8-1.4 1.1-.5 2.3-.7 3.6-.7 2 0 3.4.6 4.3 1.8.9 1.2 1.3 2.8 1.3 4.9v9.9H497l-.2-1.9c-.8.6-1.6 1.2-2.4 1.6-.8.6-1.8.8-2.8.8zm1.8-14.8c.7 0 1.2.1 1.7.4.4.2.8.6 1 .9.2.4.4.8.5 1.3.1.5.2 1 .2 1.5v.1h-.1c-3.4.4-5.9 1-7.5 2-1.5.9-2.3 2.2-2.3 4 0 1.4.4 2.5 1.3 3.3.9.8 2 1.2 3.3 1.2 1 0 1.9-.2 2.8-.7.9-.4 1.7-1 2.5-1.6h.2l.2 1.9h2.1v-9.7c0-2-.4-3.6-1.3-4.7-.9-1.2-2.3-1.8-4.2-1.8-1.3 0-2.5.2-3.5.7-1 .4-1.9.9-2.6 1.3l1 1.7c.6-.4 1.3-.8 2.1-1.1.8-.5 1.7-.7 2.6-.7zm-1 12.6c-.8 0-1.5-.2-2.1-.6-.6-.4-.9-1.1-.9-2.1 0-.5.1-1 .4-1.5.3-.4.7-.8 1.3-1.2.6-.3 1.3-.6 2.2-.9.9-.2 2.1-.5 3.4-.6h.1v4.6c-.8.7-1.5 1.2-2.2 1.6-.7.5-1.4.7-2.2.7zm4.2-6.6c-1.3.2-2.4.4-3.3.6-.9.2-1.6.5-2.2.8-.5.3-.9.7-1.2 1.1-.2.4-.4.9-.4 1.4 0 .9.3 1.5.8 1.9.5.4 1.2.6 2 .6.7 0 1.5-.2 2.1-.5.7-.4 1.4-.9 2.1-1.6V53h.1zM504.5 61.3v-16h2.2l.2 2.3h.1c.8-.8 1.6-1.4 2.4-1.9.8-.5 1.8-.8 3-.8 1.7 0 2.9.5 3.7 1.6.8 1.1 1.2 2.6 1.2 4.7v10.2h-2.7v-9.8c0-1.5-.2-2.6-.7-3.3-.5-.7-1.3-1-2.3-1-.8 0-1.6.2-2.2.6-.6.4-1.4 1-2.2 1.8v11.6h-2.7z" fill="#012A4C"/>
    <path d="M517.4 61.4h-2.9v-9.9c0-1.5-.2-2.6-.7-3.2-.5-.6-1.2-1-2.2-1-.8 0-1.5.2-2.2.6-.6.4-1.3 1-2.1 1.8v11.7h-2.9V45.2h2.4l.2 2.3c.8-.7 1.6-1.4 2.4-1.9.9-.5 1.9-.8 3-.8 1.7 0 3 .5 3.8 1.6.8 1.1 1.2 2.7 1.2 4.7v10.3zm-2.7-.2h2.5V51.1c0-2-.4-3.6-1.2-4.6-.8-1-2-1.5-3.6-1.5-1.1 0-2.1.3-2.9.8-.8.5-1.6 1.2-2.4 1.9h-.2l-.2-2.3h-2.1v15.8h2.5V49.6c.8-.8 1.6-1.4 2.2-1.9.7-.4 1.4-.6 2.3-.6 1.1 0 1.9.4 2.4 1 .5.7.7 1.8.7 3.3v9.8zM526.1 61.7c-1.3 0-2.5-.4-3.3-1.2-.9-.8-1.3-1.9-1.3-3.4 0-1.8.8-3.1 2.3-4 1.6-.9 4.1-1.6 7.5-2 0-.5 0-1-.1-1.5s-.3-.9-.5-1.3-.6-.7-1-.9c-.4-.2-1-.3-1.6-.3-.9 0-1.8.2-2.6.5-.8.4-1.5.7-2.2 1.2l-1.1-1.9c.7-.5 1.7-1 2.7-1.4 1.1-.5 2.3-.7 3.6-.7 2 0 3.4.6 4.3 1.8.9 1.2 1.3 2.8 1.3 4.8v9.8h-2.2l-.2-1.9h-.1c-.8.6-1.6 1.2-2.5 1.6-1 .6-1.9.8-3 .8zm.8-2.2c.8 0 1.5-.2 2.2-.5.7-.4 1.4-.9 2.2-1.6v-4.5c-1.3.2-2.5.4-3.4.6-.9.2-1.7.5-2.2.9-.6.3-1 .7-1.2 1.1-.3.4-.4.9-.4 1.4 0 .9.3 1.6.8 2 .5.4 1.2.6 2 .6z" fill="#012A4C"/>
    <path d="M526.1 61.8c-1.4 0-2.5-.4-3.4-1.2-.9-.8-1.4-2-1.4-3.4 0-1.8.8-3.2 2.4-4.1 1.6-.9 4.1-1.6 7.4-2 0-.5-.1-.9-.1-1.4-.1-.5-.3-.9-.5-1.3s-.6-.7-1-.9c-.4-.2-.9-.3-1.6-.3-.9 0-1.8.2-2.6.5-.8.4-1.5.7-2.2 1.2l-.1.1-1.2-2.1.1-.1c.7-.5 1.7-1 2.8-1.4 1.1-.5 2.3-.7 3.6-.7 2 0 3.4.6 4.3 1.8.9 1.2 1.3 2.8 1.3 4.9v9.9h-2.4l-.2-1.9c-.8.6-1.6 1.2-2.4 1.6-.8.6-1.7.8-2.8.8zM528 47c.7 0 1.2.1 1.7.4.4.2.8.6 1 .9.2.4.4.8.5 1.3.1.5.2 1 .2 1.5v.1h-.1c-3.4.4-5.9 1-7.5 2-1.5.9-2.3 2.2-2.3 4 0 1.4.4 2.5 1.3 3.3.9.8 2 1.2 3.3 1.2 1 0 1.9-.2 2.8-.7.9-.4 1.7-1 2.5-1.6h.2l.2 1.9h2.1v-9.7c0-2-.4-3.6-1.3-4.7-.9-1.2-2.3-1.8-4.2-1.8-1.3 0-2.5.2-3.5.7-1 .4-1.9.9-2.6 1.3l1 1.7c.6-.4 1.3-.8 2.1-1.1.8-.5 1.7-.7 2.6-.7zm-1.1 12.6c-.8 0-1.5-.2-2.1-.6-.6-.4-.9-1.1-.9-2.1 0-.5.1-1 .4-1.5.3-.4.7-.8 1.3-1.2.6-.3 1.3-.6 2.2-.9.9-.2 2.1-.5 3.4-.6h.1v4.6c-.8.7-1.5 1.2-2.2 1.6-.6.5-1.4.7-2.2.7zm4.3-6.6c-1.3.2-2.4.4-3.3.6-.9.2-1.6.5-2.2.8-.5.3-.9.7-1.2 1.1-.2.4-.4.9-.4 1.4 0 .9.3 1.5.8 1.9.5.4 1.2.6 2 .6.7 0 1.5-.2 2.1-.5.7-.4 1.4-.9 2.1-1.6V53h.1zM544.4 68.7c-1 0-1.9-.1-2.7-.3-.8-.2-1.5-.5-2.1-.8-.6-.4-1-.8-1.4-1.4-.3-.5-.5-1.1-.5-1.8s.2-1.3.6-1.9c.4-.6 1-1.2 1.7-1.7v-.1c-.4-.2-.7-.6-1-1-.3-.4-.4-1-.4-1.6 0-.7.2-1.3.6-1.8.4-.5.8-.9 1.2-1.2V55c-.5-.4-1-1-1.4-1.8-.4-.7-.6-1.6-.6-2.6 0-.9.2-1.7.5-2.4s.8-1.3 1.3-1.8 1.2-.9 1.9-1.1c.7-.3 1.5-.4 2.3-.4.4 0 .9 0 1.2.1.3.1.7.2 1 .3h5.6v2.1H549c.4.4.7.8.9 1.4.3.6.4 1.2.4 1.9 0 .9-.2 1.6-.5 2.3-.3.7-.7 1.3-1.3 1.7-.5.5-1.2.8-1.9 1.1-.7.3-1.5.4-2.3.4-.4 0-.8 0-1.2-.1-.4-.1-.8-.2-1.2-.4-.3.2-.5.5-.7.8-.2.3-.3.7-.3 1.1 0 .5.2.9.6 1.3.4.3 1.1.5 2.2.5h3.1c1.9 0 3.3.3 4.2.9.9.6 1.4 1.6 1.4 2.9 0 .7-.2 1.5-.6 2.1-.4.7-.9 1.3-1.6 1.8-.7.5-1.6.9-2.6 1.2-.8.2-1.9.4-3.2.4zm.4-1.9c.8 0 1.5-.1 2.1-.3.6-.2 1.2-.4 1.6-.7.4-.3.8-.6 1-1 .2-.4.4-.8.4-1.2 0-.7-.3-1.3-.8-1.6-.6-.3-1.4-.4-2.4-.4h-3.8c-.4 0-.7-.1-1.1-.2-.6.4-1 .9-1.3 1.3-.3.5-.4.9-.4 1.4 0 .9.4 1.5 1.2 2 .9.5 2.1.7 3.5.7zm-.4-12.4c.5 0 .9-.1 1.3-.3.4-.2.8-.4 1.1-.8.3-.3.6-.7.7-1.2.2-.5.3-1 .3-1.6 0-1.2-.3-2.1-1-2.8-.7-.6-1.5-1-2.4-1-.9 0-1.7.3-2.4 1s-1 1.6-1 2.8c0 .6.1 1.1.3 1.6.2.5.4.9.7 1.2.3.3.7.6 1.1.8.4.2.9.3 1.3.3z" fill="#012A4C"/>
    <path d="M544.4 68.8c-1 0-1.9-.1-2.7-.3-.8-.2-1.5-.5-2.1-.9-.6-.4-1.1-.8-1.4-1.4-.3-.5-.5-1.2-.5-1.9s.2-1.4.6-2c.4-.6 1-1.2 1.7-1.7-.4-.2-.7-.6-1-1-.3-.4-.4-1-.4-1.7s.2-1.3.6-1.8c.4-.5.8-.9 1.2-1.2-.5-.4-1-1-1.4-1.8-.4-.8-.7-1.6-.7-2.6 0-.9.2-1.7.5-2.4s.8-1.3 1.3-1.8c.6-.5 1.2-.9 2-1.2.7-.3 1.5-.4 2.4-.4.4 0 .9 0 1.3.1s.7.2 1 .3h5.7v2.3h-3.2c.3.4.6.8.8 1.3.3.6.4 1.2.4 1.9 0 .9-.2 1.7-.5 2.4s-.7 1.3-1.3 1.8c-.5.5-1.2.9-1.9 1.1-.7.3-1.5.4-2.3.4-.4 0-.8-.1-1.2-.2-.4-.1-.8-.2-1.1-.4-.3.2-.5.5-.7.7-.2.3-.3.6-.3 1 0 .5.2.9.6 1.2.4.3 1.1.5 2.2.5h3.1c1.9 0 3.3.3 4.3.9 1 .6 1.4 1.6 1.4 3 0 .8-.2 1.5-.6 2.2-.4.7-.9 1.3-1.6 1.8-.7.5-1.6.9-2.6 1.2-1 .3-2.3.6-3.6.6zm0-23.8c-.8 0-1.6.1-2.3.4-.7.3-1.4.6-1.9 1.1-.5.5-1 1.1-1.3 1.8-.3.7-.5 1.5-.5 2.3 0 .9.2 1.8.6 2.5.4.7.9 1.3 1.4 1.7v.2c-.4.3-.8.7-1.2 1.2-.4.5-.5 1.1-.5 1.7 0 .6.1 1.1.4 1.5.3.4.6.7 1 1v.2c-.7.5-1.3 1.1-1.7 1.7-.4.6-.6 1.2-.6 1.9s.2 1.3.5 1.8.8 1 1.3 1.3c.6.4 1.3.6 2.1.8.8.2 1.7.3 2.7.3 1.2 0 2.4-.1 3.4-.4 1-.3 1.8-.7 2.5-1.2s1.2-1.1 1.6-1.7c.4-.7.5-1.4.5-2.1 0-1.3-.5-2.3-1.4-2.8-.9-.6-2.3-.9-4.2-.9h-3.1c-1.1 0-1.9-.2-2.3-.5-.4-.3-.6-.8-.6-1.3s.1-.8.3-1.2c.2-.3.5-.6.7-.8h.1c.4.2.8.3 1.2.4.4.1.8.1 1.2.1.8 0 1.6-.1 2.3-.4.7-.3 1.3-.6 1.8-1.1.5-.5.9-1 1.2-1.7.3-.7.5-1.4.5-2.3 0-.7-.1-1.3-.4-1.8-.2-.6-.6-1-.9-1.4l-.2-.2h3.4v-1.9h-5.5c-.3-.1-.6-.2-1-.3-.2.1-.6.1-1.1.1zm.4 21.9c-1.5 0-2.6-.3-3.5-.8-.9-.5-1.3-1.2-1.3-2.1 0-.5.1-1 .4-1.4.3-.5.7-.9 1.3-1.4.3.1.7.2 1.1.2.4 0 .7.1 1 .1h2.8c1.1 0 1.9.1 2.5.4.6.3.9.9.9 1.6 0 .4-.1.9-.4 1.3-.3.4-.6.8-1.1 1.1-.4.3-1 .6-1.6.7-.6.2-1.3.3-2.1.3zm-3-5.5c-.5.4-.9.8-1.2 1.3-.3.4-.4.9-.4 1.3 0 .8.4 1.5 1.2 2 .8.5 1.9.7 3.4.7.8 0 1.5-.1 2.1-.3.6-.2 1.1-.4 1.6-.7.4-.3.8-.6 1-1 .2-.4.3-.8.3-1.2 0-.7-.3-1.2-.8-1.5-.5-.3-1.3-.4-2.4-.4h-2.8c-.3 0-.6 0-1-.1-.3.1-.6 0-1-.1zm2.6-6.9c-.5 0-.9-.1-1.3-.3-.4-.2-.8-.4-1.1-.8-.3-.4-.6-.8-.8-1.2-.2-.5-.3-1-.3-1.6 0-1.2.3-2.2 1-2.8.7-.7 1.5-1 2.5-1s1.8.3 2.5 1 1 1.6 1 2.8c0 .6-.1 1.2-.3 1.6-.2.5-.4.9-.8 1.2-.3.3-.7.6-1.1.8-.3.2-.8.3-1.3.3zm0-7.6c-.9 0-1.7.3-2.3.9-.6.6-1 1.5-1 2.7 0 .6.1 1.1.3 1.6.2.5.4.9.7 1.2.3.3.7.6 1.1.7.8.3 1.7.3 2.5 0 .4-.2.7-.4 1.1-.7.3-.3.5-.7.7-1.2.2-.5.3-1 .3-1.6 0-1.2-.3-2.1-1-2.7-.7-.6-1.5-.9-2.4-.9zM561.6 61.7c-1.1 0-2.1-.2-3-.6-.9-.4-1.7-.9-2.4-1.6-.7-.7-1.2-1.6-1.6-2.6-.4-1-.6-2.2-.6-3.5 0-1.3.2-2.5.6-3.5.4-1 .9-1.9 1.6-2.7.7-.8 1.4-1.3 2.3-1.7.9-.4 1.7-.6 2.7-.6 1 0 1.9.2 2.7.5.8.4 1.5.9 2 1.5.5.7 1 1.5 1.2 2.4.3.9.4 2 .4 3.1v.8c0 .3 0 .5-.1.7h-10.8c.1 1.7.6 3.1 1.6 4.1 1 1 2.2 1.5 3.7 1.5.8 0 1.5-.1 2.1-.3.6-.2 1.3-.5 1.9-.9l1 1.8c-.7.4-1.5.8-2.3 1.2-.9.2-1.9.4-3 .4zm-5-9.7h8.6c0-1.6-.3-2.9-1-3.7-.7-.8-1.7-1.3-2.9-1.3-.6 0-1.1.1-1.6.3-.5.2-1 .5-1.4 1-.4.4-.8 1-1 1.6-.5.6-.6 1.3-.7 2.1z" fill="#012A4C"/>
    <path d="M561.6 61.8c-1.1 0-2.1-.2-3.1-.6-.9-.4-1.8-.9-2.5-1.7-.7-.7-1.3-1.6-1.7-2.7-.4-1.1-.6-2.2-.6-3.6 0-1.3.2-2.5.6-3.6.4-1.1 1-2 1.6-2.7.7-.7 1.5-1.3 2.3-1.7.9-.4 1.8-.6 2.7-.6 1 0 1.9.2 2.8.5.9.3 1.5.9 2 1.5.5.7 1 1.5 1.3 2.4.3.9.4 2 .4 3.1v.8c0 .3 0 .5-.1.7v.1h-10.8c.1 1.6.6 2.9 1.6 3.9.9 1 2.2 1.5 3.7 1.5.8 0 1.5-.1 2.1-.3.6-.2 1.3-.5 1.8-.9l.1-.1 1.1 2h-.1c-.7.4-1.5.8-2.4 1.2-.7.6-1.7.8-2.8.8zm-.5-16.8c-.9 0-1.8.2-2.6.6-.8.4-1.6.9-2.3 1.6-.7.7-1.2 1.6-1.6 2.6-.4 1-.6 2.2-.6 3.5 0 1.3.2 2.5.6 3.5.4 1 .9 1.9 1.6 2.6.7.7 1.5 1.3 2.4 1.6.9.4 1.9.6 3 .6s2.1-.2 2.9-.5c.8-.3 1.6-.7 2.2-1.1l-.9-1.6-1.8.9c-.7.2-1.4.4-2.2.4-1.6 0-2.8-.5-3.8-1.5s-1.5-2.4-1.6-4.1V54h10.8c0-.2.1-.4.1-.6v-.8c0-1.1-.1-2.2-.4-3.1-.3-.9-.7-1.7-1.2-2.3-.5-.6-1.2-1.1-2-1.5-.7-.6-1.6-.7-2.6-.7zm4.2 7.1h-8.8V52c.1-.8.3-1.5.6-2.1.3-.6.6-1.2 1.1-1.6.4-.4.9-.8 1.4-1 .5-.2 1.1-.3 1.7-.3 1.3 0 2.3.4 3 1.3.6.8 1 2 1 3.8zm-8.6-.2h8.4c0-1.5-.4-2.7-1-3.5-.7-.8-1.6-1.2-2.8-1.2-.6 0-1.1.1-1.6.3-.5.2-1 .5-1.4 1-.4.4-.8.9-1 1.5-.3.5-.5 1.2-.6 1.9zM571.4 61.3v-16h2.2l.2 2.3h.1c.7-.8 1.5-1.4 2.3-1.9.8-.5 1.7-.8 2.7-.8 1.2 0 2.2.3 2.9.8.7.5 1.2 1.3 1.5 2.3.8-.9 1.7-1.7 2.5-2.2.8-.6 1.8-.8 2.8-.8 1.7 0 2.9.5 3.7 1.6.8 1.1 1.2 2.6 1.2 4.7v10.2h-2.7v-9.8c0-1.5-.2-2.6-.7-3.3-.5-.7-1.2-1-2.2-1-1.2 0-2.6.8-4 2.5v11.6h-2.7v-9.8c0-1.5-.2-2.6-.7-3.3-.5-.7-1.2-1-2.3-1-1.2 0-2.6.8-4 2.5v11.6h-2.8v-.2z" fill="#012A4C"/>
    <path d="M593.7 61.4h-2.9v-9.9c0-1.5-.2-2.6-.7-3.2-.5-.6-1.2-1-2.2-1-1.2 0-2.5.8-3.9 2.4v11.7h-2.9v-9.9c0-1.5-.2-2.6-.7-3.2-.5-.6-1.2-1-2.2-1-1.2 0-2.5.8-3.9 2.4v11.7h-2.9V45.2h2.4l.2 2.3c.7-.7 1.4-1.4 2.3-1.9.8-.5 1.8-.8 2.7-.8 1.2 0 2.2.3 2.9.8.7.5 1.2 1.2 1.5 2.1.8-.9 1.6-1.6 2.4-2.1.9-.6 1.8-.9 2.8-.9 1.7 0 2.9.5 3.8 1.6.8 1.1 1.2 2.7 1.2 4.7v10.4h.1zm-2.7-.2h2.5V51.1c0-2-.4-3.6-1.2-4.6-.8-1-2-1.5-3.6-1.5-1 0-1.9.3-2.7.8-.8.6-1.7 1.3-2.5 2.2l-.1.1-.1-.2c-.3-.9-.8-1.7-1.5-2.2-.7-.5-1.6-.8-2.8-.8-.9 0-1.8.3-2.6.8s-1.6 1.2-2.3 1.9h-.2l-.2-2.3h-2.1v15.8h2.5V49.6c1.5-1.7 2.9-2.5 4.1-2.5 1.1 0 1.9.4 2.4 1 .5.7.7 1.8.7 3.3v9.7h2.5V49.6c1.5-1.7 2.9-2.5 4.1-2.5 1 0 1.8.4 2.3 1 .5.7.7 1.8.7 3.3v9.8h.1zM605.2 61.7c-1.1 0-2.1-.2-3-.6-.9-.4-1.7-.9-2.4-1.6-.7-.7-1.2-1.6-1.6-2.6-.4-1-.6-2.2-.6-3.5 0-1.3.2-2.5.6-3.5.4-1 .9-1.9 1.6-2.7.7-.8 1.4-1.3 2.3-1.7.9-.4 1.7-.6 2.7-.6 1 0 1.9.2 2.7.5.8.4 1.5.9 2 1.5.5.7 1 1.5 1.2 2.4.3.9.4 2 .4 3.1v.8c0 .3 0 .5-.1.7h-10.8c.1 1.7.6 3.1 1.6 4.1 1 1 2.2 1.5 3.7 1.5.8 0 1.5-.1 2.1-.3.6-.2 1.3-.5 1.9-.9l1 1.8c-.7.4-1.5.8-2.3 1.2-.9.2-1.9.4-3 .4zm-5-9.7h8.6c0-1.6-.3-2.9-1-3.7-.7-.8-1.7-1.3-2.9-1.3-.6 0-1.1.1-1.6.3-.5.2-1 .5-1.4 1-.4.4-.8 1-1 1.6-.5.6-.6 1.3-.7 2.1z" fill="#012A4C"/>
    <path d="M605.2 61.8c-1.1 0-2.1-.2-3.1-.6-.9-.4-1.8-.9-2.5-1.7-.7-.7-1.3-1.6-1.7-2.7-.4-1.1-.6-2.2-.6-3.6 0-1.3.2-2.5.6-3.6.4-1.1 1-2 1.6-2.7.7-.7 1.5-1.3 2.3-1.7.9-.4 1.8-.6 2.7-.6 1 0 1.9.2 2.8.5.9.3 1.5.9 2 1.5.5.7 1 1.5 1.3 2.4.3.9.4 2 .4 3.1v.8c0 .3 0 .5-.1.7v.1h-10.8c.1 1.6.6 2.9 1.6 3.9.9 1 2.2 1.5 3.7 1.5.8 0 1.5-.1 2.1-.3.6-.2 1.3-.5 1.8-.9l.1-.1 1.1 2h-.1c-.7.4-1.5.8-2.4 1.2-.7.6-1.7.8-2.8.8zm-.5-16.8c-.9 0-1.8.2-2.6.6-.8.4-1.6.9-2.3 1.6-.7.7-1.2 1.6-1.6 2.6-.4 1-.6 2.2-.6 3.5 0 1.3.2 2.5.6 3.5.4 1 .9 1.9 1.6 2.6.7.7 1.5 1.3 2.4 1.6.9.4 1.9.6 3 .6s2.1-.2 2.9-.5c.8-.3 1.6-.7 2.2-1.1l-.9-1.6-1.8.9c-.7.2-1.4.4-2.2.4-1.6 0-2.8-.5-3.8-1.5s-1.5-2.4-1.6-4.1V54h10.8c0-.2.1-.4.1-.6v-.8c0-1.1-.1-2.2-.4-3.1-.3-.9-.7-1.7-1.2-2.3-.5-.6-1.2-1.1-2-1.5-.7-.6-1.6-.7-2.6-.7zm4.1 7.1H600V52c.1-.8.3-1.5.6-2.1.3-.6.6-1.2 1.1-1.6.4-.4.9-.8 1.4-1 .5-.2 1.1-.3 1.7-.3 1.3 0 2.3.4 3 1.3.7.8 1 2 1 3.8zm-8.5-.2h8.4c0-1.5-.4-2.7-1-3.5-.7-.8-1.6-1.2-2.8-1.2-.6 0-1.1.1-1.6.3-.5.2-1 .5-1.4 1-.4.4-.8.9-1 1.5-.4.5-.5 1.2-.6 1.9zM615 61.3v-16h2.2l.2 2.3h.1c.8-.8 1.6-1.4 2.4-1.9.8-.5 1.8-.8 3-.8 1.7 0 2.9.5 3.7 1.6.8 1.1 1.2 2.6 1.2 4.7v10.2h-2.7v-9.8c0-1.5-.2-2.6-.7-3.3-.5-.7-1.3-1-2.3-1-.8 0-1.6.2-2.2.6-.6.4-1.4 1-2.2 1.8v11.6H615z" fill="#012A4C"/>
    <path d="M628 61.4h-3v-9.9c0-1.5-.2-2.6-.7-3.2-.5-.6-1.2-1-2.2-1-.8 0-1.5.2-2.2.6-.6.4-1.3 1-2.1 1.8v11.7h-2.9V45.2h2.4l.2 2.3c.8-.7 1.6-1.4 2.4-1.9.9-.5 1.9-.8 3-.8 1.7 0 3 .5 3.8 1.6.8 1.1 1.2 2.7 1.2 4.7v10.3h.1zm-2.8-.2h2.5V51.1c0-2-.4-3.6-1.2-4.6-.8-1-2-1.5-3.6-1.5-1.1 0-2.1.3-2.9.8-.8.5-1.6 1.2-2.4 1.9h-.2l-.2-2.3h-2.1v15.8h2.5V49.6c.8-.8 1.6-1.4 2.2-1.9.7-.4 1.4-.6 2.3-.6 1.1 0 1.9.4 2.4 1 .5.7.7 1.8.7 3.3v9.8zM638 61.7c-.9 0-1.6-.1-2.2-.4-.6-.3-1.1-.6-1.4-1.1-.4-.5-.6-1-.8-1.7-.2-.7-.2-1.4-.2-2.2v-8.9H631v-2l2.5-.2.3-4.5h2.3v4.5h4.3v2.2h-4.3v8.9c0 1 .2 1.8.5 2.3.4.5 1 .8 1.9.8.3 0 .6 0 .9-.1l.9-.3.5 2c-.4.2-.9.3-1.4.4-.3.2-.8.3-1.4.3z" fill="#012A4C"/>
    <path d="M638 61.8c-.9 0-1.6-.1-2.2-.4-.6-.3-1.1-.6-1.5-1.1-.4-.5-.6-1.1-.8-1.7-.2-.7-.2-1.4-.2-2.2v-8.8H631v-2.2l2.5-.2.3-4.5h2.5v4.5h4.3v2.4h-4.3v8.8c0 1 .2 1.7.5 2.2.3.5 1 .8 1.8.8.3 0 .6 0 .9-.1l.9-.3h.1l.6 2.2h-.1c-.4.2-.9.3-1.4.4-.5.1-1 .2-1.6.2zm-6.8-14.4h2.4v9c0 .8.1 1.5.2 2.2.1.6.4 1.2.8 1.6.3.4.8.8 1.4 1.1.6.3 1.3.4 2.1.4.5 0 1-.1 1.5-.2s.9-.2 1.3-.4l-.5-1.8c-.2.1-.5.2-.8.3-.3.1-.7.1-.9.1-1 0-1.6-.3-2-.9-.4-.6-.6-1.3-.6-2.3v-9h4.3v-2h-4.3V41H634l-.3 4.5-2.5.2v1.7z" fill="#012A4C"/>
    <path d="M119 1.9H68v17h51v-17z" fill="#009FE3"/>
    <path d="M119 44.4H34v17h85v-17z" fill="#A6DDF5"/>
    <path d="M119.1 23.2H0v17h119.1v-17z" fill="#012A4C"/>
    </svg>
    