<svg width="17" height="14" viewBox="0 0 17 14" fill="none" xmlns="http://www.w3.org/2000/svg" title="" style="margin-right: 5px;"><path d="M16.292 0H.708a.689.689 0 00-.5.22A.773.773 0 000 .75v12c0 .199.075.39.207.53.133.141.313.22.501.22h15.584a.689.689 0 00.5-.22.773.773 0 00.208-.53v-12a.773.773 0 00-.207-.53.689.689 0 00-.501-.22z" fill="#002781"></path><path d="M17 .75a.773.773 0 00-.207-.53.689.689 0 00-.501-.22h-1.828L9.917 3.704V0H7.083v3.704L2.536 0H.708a.689.689 0 00-.5.22A.773.773 0 000 .75v.97l4.335 3.53H0v3h4.335L0 11.78v.97c0 .199.075.39.207.53.133.141.313.22.501.22h1.828l4.547-3.704V13.5h2.834V9.796l4.547 3.704h1.828a.689.689 0 00.5-.22.773.773 0 00.208-.53v-.97l-4.335-3.53H17v-3h-4.335L17 1.72V.75z" fill="#E6E6E6"></path><path d="M17 6H9.208V0H7.792v6H0v1.5h7.792v6h1.416v-6H17V6z" fill="#D10D24"></path><path d="M7.083 8.146L.56 13.483a.684.684 0 00.148.017h.845l5.53-4.524v-.83zM9.917 5.354L16.44.017A.69.69 0 0016.292 0h-.845l-5.53 4.525v.829zM6.377 5.25L.217.21A.784.784 0 000 .75l.001.112L5.364 5.25h1.013zM10.623 8.25l6.16 5.04a.784.784 0 00.218-.54v-.113L11.635 8.25h-1.013z" fill="#D10D24"></path></svg>