<svg width="17" height="14" viewBox="0 0 17 14" fill="none" xmlns="http://www.w3.org/2000/svg" title="" style="margin-right: 5px;"><path d="M17 13c0 .414-.317.75-.708.75H.708C.317 13.75 0 13.414 0 13V1C0 .586.317.25.708.25h15.584c.391 0 .708.336.708.75v12z" fill="#EF2B2D"></path><path d="M3.542 4.75H0v.75h4.25V.25h-.708v4.5zM0 9.25h3.542v4.5h.708V8.5H0v.75zM7.792 4.75V.25h-.709V5.5H17v-.75H7.792zM7.083 9.25v4.5h.709v-4.5H17V8.5H7.083v.75z" fill="#fff"></path><path d="M17 5.5H7.083V.25H4.25V5.5H0v3h4.25v5.25h2.833V8.5H17v-3z" fill="#003680"></path></svg>